G75*
%MOIN*%
%OFA0B0*%
%FSLAX25Y25*%
%IPPOS*%
%LPD*%
%AMOC8*
5,1,8,0,0,1.08239X$1,22.5*
%
%ADD10C,0.00000*%
%ADD11R,0.07874X0.07874*%
%ADD12C,0.07874*%
%ADD13C,0.10000*%
%ADD14C,0.02400*%
D10*
X0002200Y0002200D02*
X0002200Y0197161D01*
X0195901Y0197161D01*
X0195901Y0002200D01*
X0002200Y0002200D01*
D11*
X0012200Y0012200D03*
X0022200Y0012200D03*
X0037200Y0012200D03*
X0092200Y0012200D03*
X0117200Y0012200D03*
X0154700Y0059700D03*
X0184700Y0047200D03*
X0187200Y0009700D03*
X0039700Y0127200D03*
X0009700Y0114700D03*
X0017200Y0174700D03*
D12*
X0027200Y0174700D03*
X0039700Y0174700D03*
X0039700Y0184700D03*
X0047200Y0162200D03*
X0047200Y0152200D03*
X0034700Y0144700D03*
X0052200Y0134700D03*
X0062200Y0134700D03*
X0064200Y0144200D03*
X0064200Y0164200D03*
X0069700Y0174700D03*
X0069700Y0184700D03*
X0125200Y0152200D03*
X0133200Y0161200D03*
X0144700Y0159700D03*
X0144700Y0149700D03*
X0144700Y0139700D03*
X0144200Y0128700D03*
X0157200Y0134700D03*
X0167200Y0134700D03*
X0179700Y0127200D03*
X0179700Y0117200D03*
X0167200Y0104700D03*
X0157200Y0104700D03*
X0167200Y0092200D03*
X0179700Y0102200D03*
X0179700Y0072200D03*
X0167200Y0072200D03*
X0184700Y0059700D03*
X0184700Y0037200D03*
X0184700Y0027200D03*
X0169700Y0012200D03*
X0154700Y0027200D03*
X0154700Y0037200D03*
X0154700Y0047200D03*
X0139700Y0042200D03*
X0139700Y0052200D03*
X0139700Y0062200D03*
X0137200Y0077200D03*
X0119700Y0077200D03*
X0104700Y0072200D03*
X0089700Y0079700D03*
X0094700Y0089700D03*
X0104700Y0102200D03*
X0119700Y0097200D03*
X0137200Y0097200D03*
X0144200Y0108700D03*
X0125200Y0132200D03*
X0159700Y0152200D03*
X0169700Y0152200D03*
X0179700Y0152200D03*
X0179700Y0182200D03*
X0169700Y0182200D03*
X0159700Y0182200D03*
X0133200Y0191200D03*
X0062200Y0104700D03*
X0052200Y0104700D03*
X0042200Y0102200D03*
X0039700Y0114700D03*
X0044700Y0089700D03*
X0056700Y0077700D03*
X0066700Y0077700D03*
X0076700Y0077700D03*
X0064700Y0089700D03*
X0044700Y0074700D03*
X0044700Y0059700D03*
X0057200Y0053700D03*
X0067200Y0053700D03*
X0077200Y0053700D03*
X0089700Y0059700D03*
X0102200Y0049700D03*
X0097200Y0037200D03*
X0089700Y0024700D03*
X0079700Y0012200D03*
X0059700Y0024700D03*
X0062700Y0036200D03*
X0072700Y0036200D03*
X0049700Y0012200D03*
X0044700Y0027200D03*
X0034700Y0042200D03*
X0014700Y0042200D03*
X0014700Y0027200D03*
X0014700Y0059700D03*
X0014700Y0074700D03*
X0014700Y0089700D03*
X0012200Y0102200D03*
X0009700Y0127200D03*
X0014700Y0144700D03*
X0122200Y0049700D03*
X0127200Y0037200D03*
X0117200Y0024700D03*
X0107200Y0024700D03*
X0102200Y0012200D03*
X0139700Y0012200D03*
D13*
X0117200Y0117200D03*
X0107200Y0137200D03*
X0107200Y0157200D03*
X0107200Y0177200D03*
X0087200Y0177200D03*
X0087200Y0157200D03*
X0087200Y0137200D03*
X0077200Y0117200D03*
X0097200Y0117200D03*
D14*
X0104700Y0102200D02*
X0109700Y0097200D01*
X0119700Y0097200D01*
X0137200Y0097200D02*
X0159700Y0097200D01*
X0167200Y0104700D01*
X0167200Y0092200D02*
X0147200Y0092200D01*
X0137200Y0082200D01*
X0137200Y0077200D01*
X0137200Y0074700D01*
X0139700Y0072200D01*
X0139700Y0062200D01*
X0132200Y0069700D02*
X0137200Y0074700D01*
X0132200Y0069700D02*
X0107200Y0069700D01*
X0104700Y0072200D01*
X0097200Y0064700D02*
X0092200Y0069700D01*
X0064700Y0069700D01*
X0056700Y0077700D01*
X0056700Y0087700D01*
X0042200Y0102200D01*
X0022200Y0107200D02*
X0022200Y0164700D01*
X0017200Y0169700D01*
X0017200Y0174700D01*
X0017200Y0184700D01*
X0023700Y0191200D01*
X0133200Y0191200D01*
X0155700Y0191200D01*
X0159700Y0187200D01*
X0159700Y0182200D01*
X0159700Y0187200D02*
X0162200Y0189700D01*
X0174700Y0189700D01*
X0179700Y0184700D01*
X0179700Y0182200D01*
X0179700Y0152200D02*
X0179700Y0127200D01*
X0179700Y0102200D02*
X0182200Y0102200D01*
X0187200Y0097200D01*
X0187200Y0062200D01*
X0184700Y0059700D01*
X0184700Y0047200D02*
X0174700Y0047200D01*
X0164700Y0037200D01*
X0154700Y0037200D01*
X0139700Y0052200D01*
X0139700Y0042200D02*
X0139700Y0037200D01*
X0149700Y0027200D01*
X0154700Y0027200D01*
X0164700Y0037200D02*
X0169700Y0032200D01*
X0169700Y0012200D01*
X0139700Y0012200D02*
X0139700Y0014700D01*
X0117200Y0037200D01*
X0117200Y0047200D01*
X0119700Y0049700D01*
X0122200Y0049700D01*
X0102200Y0049700D02*
X0097200Y0054700D01*
X0097200Y0064700D01*
X0089700Y0059700D02*
X0083200Y0059700D01*
X0077200Y0053700D01*
X0054700Y0071200D01*
X0048200Y0071200D01*
X0044700Y0074700D01*
X0053450Y0067450D02*
X0029450Y0067450D01*
X0022200Y0074700D01*
X0014700Y0074700D01*
X0006200Y0084200D02*
X0014700Y0089700D01*
X0012200Y0092200D01*
X0012200Y0102200D01*
X0017200Y0102200D01*
X0022200Y0107200D01*
X0006200Y0084200D02*
X0006200Y0017200D01*
X0009200Y0012200D01*
X0012200Y0012200D01*
X0012200Y0007200D01*
X0014200Y0005200D01*
X0045200Y0005200D01*
X0049700Y0009700D01*
X0049700Y0012200D01*
X0059700Y0024700D02*
X0072700Y0024700D01*
X0080200Y0032200D01*
X0092200Y0032200D01*
X0095200Y0029200D01*
X0102700Y0029200D01*
X0107200Y0024700D01*
X0102200Y0012200D02*
X0117200Y0012200D01*
X0097200Y0037200D02*
X0073700Y0037200D01*
X0072700Y0036200D01*
X0072700Y0048200D01*
X0067200Y0053700D01*
X0053450Y0067450D01*
X0044700Y0059700D02*
X0050700Y0053700D01*
X0057200Y0053700D01*
X0034700Y0062200D02*
X0034700Y0042200D01*
X0034700Y0062200D02*
X0029450Y0067450D01*
X0066700Y0077700D02*
X0066700Y0079200D01*
X0077200Y0089700D01*
X0077200Y0099700D01*
X0062200Y0114700D01*
X0062200Y0134700D01*
X0047200Y0152200D02*
X0054700Y0159700D01*
X0054700Y0169700D01*
X0059700Y0174700D01*
X0069700Y0174700D01*
X0069700Y0184700D02*
X0079700Y0184700D01*
X0087200Y0177200D01*
X0080200Y0164200D02*
X0064200Y0164200D01*
X0080200Y0164200D02*
X0087200Y0157200D01*
X0087200Y0137200D02*
X0087200Y0082200D01*
X0089700Y0079700D01*
X0125200Y0132200D02*
X0117200Y0140200D01*
X0117200Y0167200D01*
X0107200Y0177200D01*
X0092200Y0012200D02*
X0079700Y0012200D01*
M02*
