%
M48
M72
T01C0.03937
T02C0.05512
%
T01
X12200Y12200
X22200Y12200
X37200Y12200
X49700Y12200
X59700Y24700
X62700Y36200
X72700Y36200
X77200Y53700
X67200Y53700
X57200Y53700
X44700Y59700
X44700Y74700
X56700Y77700
X66700Y77700
X76700Y77700
X64700Y89700
X62200Y104700
X52200Y104700
X42200Y102200
X39700Y114700
X39700Y127200
X52200Y134700
X62200Y134700
X64200Y144200
X47200Y152200
X47200Y162200
X39700Y174700
X39700Y184700
X27200Y174700
X17200Y174700
X14700Y144700
X9700Y127200
X9700Y114700
X12200Y102200
X14700Y89700
X14700Y74700
X14700Y59700
X14700Y42200
X14700Y27200
X34700Y42200
X44700Y27200
X79700Y12200
X92200Y12200
X102200Y12200
X107200Y24700
X117200Y24700
X117200Y12200
X139700Y12200
X154700Y27200
X154700Y37200
X154700Y47200
X154700Y59700
X139700Y62200
X139700Y52200
X139700Y42200
X127200Y37200
X122200Y49700
X102200Y49700
X97200Y37200
X89700Y24700
X89700Y59700
X104700Y72200
X89700Y79700
X94700Y89700
X104700Y102200
X119700Y97200
X137200Y97200
X144200Y108700
X157200Y104700
X167200Y104700
X167200Y92200
X179700Y102200
X179700Y117200
X179700Y127200
X167200Y134700
X157200Y134700
X144700Y139700
X144700Y149700
X144700Y159700
X133200Y161200
X125200Y152200
X125200Y132200
X144200Y128700
X159700Y152200
X169700Y152200
X179700Y152200
X179700Y182200
X169700Y182200
X159700Y182200
X133200Y191200
X69700Y184700
X69700Y174700
X64200Y164200
X34700Y144700
X44700Y89700
X119700Y77200
X137200Y77200
X167200Y72200
X179700Y72200
X184700Y59700
X184700Y47200
X184700Y37200
X184700Y27200
X169700Y12200
X187200Y9700
T02
X77200Y117200
X97200Y117200
X87200Y137200
X87200Y157200
X87200Y177200
X107200Y177200
X107200Y157200
X107200Y137200
X117200Y117200
M30
