G75*
%MOIN*%
%OFA0B0*%
%FSLAX25Y25*%
%IPPOS*%
%LPD*%
%AMOC8*
5,1,8,0,0,1.08239X$1,22.5*
%
%ADD10C,0.00000*%
%ADD11R,0.07874X0.07874*%
%ADD12C,0.07874*%
%ADD13C,0.10000*%
%ADD14C,0.02400*%
D10*
X0002200Y0002200D02*
X0002200Y0197161D01*
X0195901Y0197161D01*
X0195901Y0002200D01*
X0002200Y0002200D01*
D11*
X0012200Y0012200D03*
X0022200Y0012200D03*
X0037200Y0012200D03*
X0092200Y0012200D03*
X0117200Y0012200D03*
X0154700Y0059700D03*
X0184700Y0047200D03*
X0187200Y0009700D03*
X0039700Y0127200D03*
X0009700Y0114700D03*
X0017200Y0174700D03*
D12*
X0027200Y0174700D03*
X0039700Y0174700D03*
X0039700Y0184700D03*
X0047200Y0162200D03*
X0047200Y0152200D03*
X0034700Y0144700D03*
X0052200Y0134700D03*
X0062200Y0134700D03*
X0064200Y0144200D03*
X0064200Y0164200D03*
X0069700Y0174700D03*
X0069700Y0184700D03*
X0125200Y0152200D03*
X0133200Y0161200D03*
X0144700Y0159700D03*
X0144700Y0149700D03*
X0144700Y0139700D03*
X0144200Y0128700D03*
X0157200Y0134700D03*
X0167200Y0134700D03*
X0179700Y0127200D03*
X0179700Y0117200D03*
X0167200Y0104700D03*
X0157200Y0104700D03*
X0167200Y0092200D03*
X0179700Y0102200D03*
X0179700Y0072200D03*
X0167200Y0072200D03*
X0184700Y0059700D03*
X0184700Y0037200D03*
X0184700Y0027200D03*
X0169700Y0012200D03*
X0154700Y0027200D03*
X0154700Y0037200D03*
X0154700Y0047200D03*
X0139700Y0042200D03*
X0139700Y0052200D03*
X0139700Y0062200D03*
X0137200Y0077200D03*
X0119700Y0077200D03*
X0104700Y0072200D03*
X0089700Y0079700D03*
X0094700Y0089700D03*
X0104700Y0102200D03*
X0119700Y0097200D03*
X0137200Y0097200D03*
X0144200Y0108700D03*
X0125200Y0132200D03*
X0159700Y0152200D03*
X0169700Y0152200D03*
X0179700Y0152200D03*
X0179700Y0182200D03*
X0169700Y0182200D03*
X0159700Y0182200D03*
X0133200Y0191200D03*
X0062200Y0104700D03*
X0052200Y0104700D03*
X0042200Y0102200D03*
X0039700Y0114700D03*
X0044700Y0089700D03*
X0056700Y0077700D03*
X0066700Y0077700D03*
X0076700Y0077700D03*
X0064700Y0089700D03*
X0044700Y0074700D03*
X0044700Y0059700D03*
X0057200Y0053700D03*
X0067200Y0053700D03*
X0077200Y0053700D03*
X0089700Y0059700D03*
X0102200Y0049700D03*
X0097200Y0037200D03*
X0089700Y0024700D03*
X0079700Y0012200D03*
X0059700Y0024700D03*
X0062700Y0036200D03*
X0072700Y0036200D03*
X0049700Y0012200D03*
X0044700Y0027200D03*
X0034700Y0042200D03*
X0014700Y0042200D03*
X0014700Y0027200D03*
X0014700Y0059700D03*
X0014700Y0074700D03*
X0014700Y0089700D03*
X0012200Y0102200D03*
X0009700Y0127200D03*
X0014700Y0144700D03*
X0122200Y0049700D03*
X0127200Y0037200D03*
X0117200Y0024700D03*
X0107200Y0024700D03*
X0102200Y0012200D03*
X0139700Y0012200D03*
D13*
X0117200Y0117200D03*
X0107200Y0137200D03*
X0107200Y0157200D03*
X0107200Y0177200D03*
X0087200Y0177200D03*
X0087200Y0157200D03*
X0087200Y0137200D03*
X0077200Y0117200D03*
X0097200Y0117200D03*
D14*
X0097200Y0120200D01*
X0102200Y0125200D01*
X0127700Y0125200D01*
X0144200Y0108700D01*
X0146764Y0114930D02*
X0173348Y0114930D01*
X0172963Y0115860D02*
X0173989Y0113384D01*
X0175700Y0111672D01*
X0175700Y0107728D01*
X0173989Y0106016D01*
X0173937Y0105891D01*
X0173937Y0106040D01*
X0172911Y0108516D01*
X0171016Y0110411D01*
X0168540Y0111437D01*
X0165860Y0111437D01*
X0163384Y0110411D01*
X0161776Y0108803D01*
X0161198Y0109381D01*
X0160416Y0109949D01*
X0159556Y0110387D01*
X0158637Y0110686D01*
X0157683Y0110837D01*
X0157200Y0110837D01*
X0157200Y0104700D01*
X0157200Y0104700D01*
X0157200Y0098563D01*
X0157683Y0098563D01*
X0158637Y0098714D01*
X0159556Y0099013D01*
X0160416Y0099451D01*
X0161198Y0100019D01*
X0161776Y0100597D01*
X0163384Y0098989D01*
X0164684Y0098450D01*
X0163384Y0097911D01*
X0161489Y0096016D01*
X0160463Y0093540D01*
X0160463Y0090860D01*
X0161489Y0088384D01*
X0163384Y0086489D01*
X0165860Y0085463D01*
X0168540Y0085463D01*
X0171016Y0086489D01*
X0171635Y0087108D01*
X0175700Y0083043D01*
X0175700Y0077728D01*
X0173989Y0076016D01*
X0173450Y0074716D01*
X0172911Y0076016D01*
X0171016Y0077911D01*
X0168540Y0078937D01*
X0165860Y0078937D01*
X0163384Y0077911D01*
X0161489Y0076016D01*
X0160463Y0073540D01*
X0160463Y0070860D01*
X0161489Y0068384D01*
X0163200Y0066672D01*
X0163200Y0066357D01*
X0161320Y0064477D01*
X0161011Y0065223D01*
X0160223Y0066011D01*
X0159194Y0066437D01*
X0150206Y0066437D01*
X0149177Y0066011D01*
X0148389Y0065223D01*
X0147963Y0064194D01*
X0147963Y0055206D01*
X0148389Y0054177D01*
X0149177Y0053389D01*
X0150206Y0052963D01*
X0150700Y0052963D01*
X0150700Y0052728D01*
X0148989Y0051016D01*
X0147963Y0048540D01*
X0147963Y0045860D01*
X0148989Y0043384D01*
X0150172Y0042200D01*
X0148989Y0041016D01*
X0147963Y0038540D01*
X0147963Y0035860D01*
X0148989Y0033384D01*
X0150172Y0032200D01*
X0148989Y0031016D01*
X0147963Y0028540D01*
X0147963Y0025860D01*
X0148989Y0023384D01*
X0150884Y0021489D01*
X0153360Y0020463D01*
X0156040Y0020463D01*
X0158516Y0021489D01*
X0160411Y0023384D01*
X0161437Y0025860D01*
X0161437Y0028540D01*
X0160411Y0031016D01*
X0159228Y0032200D01*
X0160411Y0033384D01*
X0161437Y0035860D01*
X0161437Y0038540D01*
X0160411Y0041016D01*
X0159228Y0042200D01*
X0160411Y0043384D01*
X0161437Y0045860D01*
X0161437Y0048540D01*
X0160411Y0051016D01*
X0158700Y0052728D01*
X0158700Y0052963D01*
X0159194Y0052963D01*
X0160223Y0053389D01*
X0161011Y0054177D01*
X0161437Y0055206D01*
X0161437Y0055700D01*
X0162996Y0055700D01*
X0164466Y0056309D01*
X0169466Y0061309D01*
X0170591Y0062434D01*
X0171200Y0063904D01*
X0171200Y0066672D01*
X0172911Y0068384D01*
X0173450Y0069684D01*
X0173989Y0068384D01*
X0175884Y0066489D01*
X0178360Y0065463D01*
X0181009Y0065463D01*
X0180884Y0065411D01*
X0178989Y0063516D01*
X0177963Y0061040D01*
X0177963Y0058360D01*
X0178989Y0055884D01*
X0180700Y0054172D01*
X0180700Y0053937D01*
X0180206Y0053937D01*
X0179177Y0053511D01*
X0178389Y0052723D01*
X0177963Y0051694D01*
X0177963Y0042706D01*
X0178389Y0041677D01*
X0179177Y0040889D01*
X0179652Y0040693D01*
X0179451Y0040416D01*
X0179013Y0039556D01*
X0178714Y0038637D01*
X0178563Y0037683D01*
X0178563Y0037200D01*
X0184700Y0037200D01*
X0184700Y0027200D01*
X0184700Y0027200D01*
X0184700Y0033337D01*
X0184700Y0037200D01*
X0184700Y0037200D01*
X0184700Y0037200D01*
X0178563Y0037200D01*
X0178563Y0036717D01*
X0178714Y0035763D01*
X0179013Y0034844D01*
X0179451Y0033984D01*
X0180019Y0033202D01*
X0180702Y0032519D01*
X0181141Y0032200D01*
X0180702Y0031881D01*
X0180019Y0031198D01*
X0179451Y0030416D01*
X0179013Y0029556D01*
X0178714Y0028637D01*
X0178563Y0027683D01*
X0178563Y0027200D01*
X0184700Y0027200D01*
X0184700Y0021063D01*
X0185183Y0021063D01*
X0186137Y0021214D01*
X0187056Y0021513D01*
X0187916Y0021951D01*
X0188200Y0022157D01*
X0188200Y0016437D01*
X0182706Y0016437D01*
X0181677Y0016011D01*
X0180889Y0015223D01*
X0180463Y0014194D01*
X0180463Y0005206D01*
X0180548Y0005000D01*
X0005000Y0005000D01*
X0005000Y0108048D01*
X0005206Y0107963D01*
X0008509Y0107963D01*
X0008384Y0107911D01*
X0006489Y0106016D01*
X0005463Y0103540D01*
X0005463Y0100860D01*
X0006489Y0098384D01*
X0008384Y0096489D01*
X0010860Y0095463D01*
X0011009Y0095463D01*
X0010884Y0095411D01*
X0008989Y0093516D01*
X0007963Y0091040D01*
X0007963Y0088360D01*
X0008989Y0085884D01*
X0010884Y0083989D01*
X0013360Y0082963D01*
X0016040Y0082963D01*
X0018516Y0083989D01*
X0020411Y0085884D01*
X0021437Y0088360D01*
X0021437Y0091040D01*
X0020411Y0093516D01*
X0018516Y0095411D01*
X0016040Y0096437D01*
X0015891Y0096437D01*
X0016016Y0096489D01*
X0017911Y0098384D01*
X0018937Y0100860D01*
X0018937Y0103540D01*
X0017911Y0106016D01*
X0016016Y0107911D01*
X0015043Y0108315D01*
X0015223Y0108389D01*
X0016011Y0109177D01*
X0016437Y0110206D01*
X0016437Y0119194D01*
X0016011Y0120223D01*
X0015223Y0121011D01*
X0014194Y0121437D01*
X0013700Y0121437D01*
X0013700Y0121672D01*
X0015411Y0123384D01*
X0016437Y0125860D01*
X0016437Y0128280D01*
X0016966Y0128809D01*
X0018091Y0129934D01*
X0018700Y0131404D01*
X0018700Y0139172D01*
X0020411Y0140884D01*
X0021437Y0143360D01*
X0021437Y0146040D01*
X0020411Y0148516D01*
X0018516Y0150411D01*
X0016040Y0151437D01*
X0013360Y0151437D01*
X0010884Y0150411D01*
X0008989Y0148516D01*
X0007963Y0146040D01*
X0007963Y0143360D01*
X0008989Y0140884D01*
X0010700Y0139172D01*
X0010700Y0133937D01*
X0008360Y0133937D01*
X0005884Y0132911D01*
X0005000Y0132028D01*
X0005000Y0194361D01*
X0127217Y0194361D01*
X0126463Y0192540D01*
X0126463Y0189860D01*
X0127489Y0187384D01*
X0129384Y0185489D01*
X0131860Y0184463D01*
X0134540Y0184463D01*
X0137016Y0185489D01*
X0138911Y0187384D01*
X0139937Y0189860D01*
X0139937Y0192540D01*
X0139183Y0194361D01*
X0193101Y0194361D01*
X0193101Y0171956D01*
X0189466Y0175591D01*
X0187996Y0176200D01*
X0182819Y0176200D01*
X0183516Y0176489D01*
X0185411Y0178384D01*
X0186437Y0180860D01*
X0186437Y0183540D01*
X0185411Y0186016D01*
X0183516Y0187911D01*
X0181040Y0188937D01*
X0178360Y0188937D01*
X0175884Y0187911D01*
X0174276Y0186303D01*
X0173698Y0186881D01*
X0172916Y0187449D01*
X0172056Y0187887D01*
X0171137Y0188186D01*
X0170183Y0188337D01*
X0169700Y0188337D01*
X0169700Y0182200D01*
X0169700Y0182200D01*
X0169700Y0188337D01*
X0169217Y0188337D01*
X0168263Y0188186D01*
X0167344Y0187887D01*
X0166484Y0187449D01*
X0165702Y0186881D01*
X0165124Y0186303D01*
X0163516Y0187911D01*
X0161040Y0188937D01*
X0158360Y0188937D01*
X0155884Y0187911D01*
X0153989Y0186016D01*
X0152963Y0183540D01*
X0152963Y0180860D01*
X0153989Y0178384D01*
X0155884Y0176489D01*
X0156581Y0176200D01*
X0118904Y0176200D01*
X0117434Y0175591D01*
X0116309Y0174466D01*
X0106843Y0165000D01*
X0105648Y0165000D01*
X0102782Y0163813D01*
X0100587Y0161618D01*
X0099400Y0158752D01*
X0099400Y0155648D01*
X0100587Y0152782D01*
X0102782Y0150587D01*
X0105648Y0149400D01*
X0108752Y0149400D01*
X0111618Y0150587D01*
X0113813Y0152782D01*
X0115000Y0155648D01*
X0115000Y0158752D01*
X0114094Y0160938D01*
X0121357Y0168200D01*
X0185543Y0168200D01*
X0188200Y0165543D01*
X0188200Y0124357D01*
X0186437Y0126120D01*
X0186437Y0128540D01*
X0185411Y0131016D01*
X0183516Y0132911D01*
X0181040Y0133937D01*
X0178360Y0133937D01*
X0175884Y0132911D01*
X0173989Y0131016D01*
X0172963Y0128540D01*
X0172963Y0125860D01*
X0173989Y0123384D01*
X0175172Y0122200D01*
X0173989Y0121016D01*
X0172963Y0118540D01*
X0172963Y0115860D01*
X0172963Y0117329D02*
X0141228Y0117329D01*
X0143120Y0115437D02*
X0131091Y0127466D01*
X0130542Y0128015D01*
X0130911Y0128384D01*
X0131937Y0130860D01*
X0131937Y0133540D01*
X0130911Y0136016D01*
X0129016Y0137911D01*
X0126540Y0138937D01*
X0123860Y0138937D01*
X0121384Y0137911D01*
X0119489Y0136016D01*
X0118463Y0133540D01*
X0118463Y0130860D01*
X0119151Y0129200D01*
X0101404Y0129200D01*
X0099934Y0128591D01*
X0096343Y0125000D01*
X0095648Y0125000D01*
X0092782Y0123813D01*
X0090587Y0121618D01*
X0089400Y0118752D01*
X0089400Y0115648D01*
X0090587Y0112782D01*
X0092782Y0110587D01*
X0095648Y0109400D01*
X0098752Y0109400D01*
X0101618Y0110587D01*
X0103813Y0112782D01*
X0105000Y0115648D01*
X0105000Y0118752D01*
X0103986Y0121200D01*
X0110414Y0121200D01*
X0109400Y0118752D01*
X0109400Y0115648D01*
X0110587Y0112782D01*
X0112782Y0110587D01*
X0115648Y0109400D01*
X0118752Y0109400D01*
X0121618Y0110587D01*
X0122387Y0111356D01*
X0132108Y0101635D01*
X0131489Y0101016D01*
X0130463Y0098540D01*
X0130463Y0095860D01*
X0131489Y0093384D01*
X0133384Y0091489D01*
X0135860Y0090463D01*
X0138540Y0090463D01*
X0141016Y0091489D01*
X0142911Y0093384D01*
X0143937Y0095860D01*
X0143937Y0098540D01*
X0142911Y0101016D01*
X0141331Y0102596D01*
X0142860Y0101963D01*
X0145540Y0101963D01*
X0148016Y0102989D01*
X0149911Y0104884D01*
X0150937Y0107360D01*
X0150937Y0110040D01*
X0149911Y0112516D01*
X0148016Y0114411D01*
X0145540Y0115437D01*
X0143120Y0115437D01*
X0138830Y0119727D02*
X0173455Y0119727D01*
X0175098Y0122126D02*
X0145933Y0122126D01*
X0145540Y0121963D02*
X0148016Y0122989D01*
X0149911Y0124884D01*
X0150937Y0127360D01*
X0150937Y0130040D01*
X0149911Y0132516D01*
X0148462Y0133966D01*
X0148516Y0133989D01*
X0150228Y0135700D01*
X0150463Y0135700D01*
X0150463Y0133360D01*
X0151489Y0130884D01*
X0153384Y0128989D01*
X0155860Y0127963D01*
X0158540Y0127963D01*
X0161016Y0128989D01*
X0162624Y0130597D01*
X0163202Y0130019D01*
X0163984Y0129451D01*
X0164844Y0129013D01*
X0165763Y0128714D01*
X0166717Y0128563D01*
X0167200Y0128563D01*
X0167683Y0128563D01*
X0168637Y0128714D01*
X0169556Y0129013D01*
X0170416Y0129451D01*
X0171198Y0130019D01*
X0171881Y0130702D01*
X0172449Y0131484D01*
X0172887Y0132344D01*
X0173186Y0133263D01*
X0173337Y0134217D01*
X0173337Y0134700D01*
X0173337Y0135183D01*
X0173186Y0136137D01*
X0172887Y0137056D01*
X0172449Y0137916D01*
X0171881Y0138698D01*
X0171198Y0139381D01*
X0170416Y0139949D01*
X0169556Y0140387D01*
X0168637Y0140686D01*
X0167683Y0140837D01*
X0167200Y0140837D01*
X0167200Y0134700D01*
X0167200Y0134700D01*
X0173337Y0134700D01*
X0167200Y0134700D01*
X0167200Y0134700D01*
X0167200Y0140837D01*
X0166717Y0140837D01*
X0165763Y0140686D01*
X0164844Y0140387D01*
X0163984Y0139949D01*
X0163202Y0139381D01*
X0162624Y0138803D01*
X0161016Y0140411D01*
X0158540Y0141437D01*
X0156120Y0141437D01*
X0155591Y0141966D01*
X0154466Y0143091D01*
X0152996Y0143700D01*
X0150228Y0143700D01*
X0149228Y0144700D01*
X0150411Y0145884D01*
X0151371Y0148200D01*
X0154172Y0148200D01*
X0155884Y0146489D01*
X0158360Y0145463D01*
X0161040Y0145463D01*
X0163516Y0146489D01*
X0164700Y0147672D01*
X0165884Y0146489D01*
X0168360Y0145463D01*
X0171040Y0145463D01*
X0173516Y0146489D01*
X0174700Y0147672D01*
X0175884Y0146489D01*
X0178360Y0145463D01*
X0181040Y0145463D01*
X0183516Y0146489D01*
X0185411Y0148384D01*
X0186437Y0150860D01*
X0186437Y0153540D01*
X0185411Y0156016D01*
X0183516Y0157911D01*
X0181040Y0158937D01*
X0178360Y0158937D01*
X0175884Y0157911D01*
X0174700Y0156728D01*
X0173516Y0157911D01*
X0171040Y0158937D01*
X0168360Y0158937D01*
X0165884Y0157911D01*
X0164700Y0156728D01*
X0163516Y0157911D01*
X0161040Y0158937D01*
X0158360Y0158937D01*
X0155884Y0157911D01*
X0154172Y0156200D01*
X0150542Y0156200D01*
X0151437Y0158360D01*
X0151437Y0161040D01*
X0150411Y0163516D01*
X0148516Y0165411D01*
X0146040Y0166437D01*
X0143360Y0166437D01*
X0142788Y0166200D01*
X0137728Y0166200D01*
X0137016Y0166911D01*
X0134540Y0167937D01*
X0131860Y0167937D01*
X0129384Y0166911D01*
X0127489Y0165016D01*
X0126463Y0162540D01*
X0126463Y0159860D01*
X0126909Y0158784D01*
X0126540Y0158937D01*
X0123860Y0158937D01*
X0121384Y0157911D01*
X0119489Y0156016D01*
X0118463Y0153540D01*
X0118463Y0150860D01*
X0119489Y0148384D01*
X0121384Y0146489D01*
X0123860Y0145463D01*
X0126540Y0145463D01*
X0129016Y0146489D01*
X0130728Y0148200D01*
X0130996Y0148200D01*
X0132466Y0148809D01*
X0135466Y0151809D01*
X0136591Y0152934D01*
X0137200Y0154404D01*
X0137200Y0155672D01*
X0138527Y0156999D01*
X0138989Y0155884D01*
X0140172Y0154700D01*
X0139172Y0153700D01*
X0138904Y0153700D01*
X0137434Y0153091D01*
X0134934Y0150591D01*
X0133809Y0149466D01*
X0133200Y0147996D01*
X0133200Y0130404D01*
X0133809Y0128934D01*
X0136809Y0125934D01*
X0137934Y0124809D01*
X0139008Y0124364D01*
X0140384Y0122989D01*
X0142860Y0121963D01*
X0145540Y0121963D01*
X0142467Y0122126D02*
X0136431Y0122126D01*
X0138622Y0124524D02*
X0134033Y0124524D01*
X0135821Y0126923D02*
X0131634Y0126923D01*
X0131300Y0129321D02*
X0133649Y0129321D01*
X0133200Y0131720D02*
X0131937Y0131720D01*
X0131698Y0134118D02*
X0133200Y0134118D01*
X0133200Y0136517D02*
X0130411Y0136517D01*
X0133200Y0138915D02*
X0126593Y0138915D01*
X0123807Y0138915D02*
X0114194Y0138915D01*
X0114277Y0138608D02*
X0114033Y0139519D01*
X0113671Y0140391D01*
X0113199Y0141209D01*
X0112625Y0141957D01*
X0111957Y0142625D01*
X0111209Y0143199D01*
X0110391Y0143671D01*
X0109519Y0144033D01*
X0108608Y0144277D01*
X0107672Y0144400D01*
X0107378Y0144400D01*
X0107378Y0137378D01*
X0107022Y0137378D01*
X0107022Y0144400D01*
X0106728Y0144400D01*
X0105792Y0144277D01*
X0104881Y0144033D01*
X0104009Y0143671D01*
X0103191Y0143199D01*
X0102443Y0142625D01*
X0101775Y0141957D01*
X0101201Y0141209D01*
X0100729Y0140391D01*
X0100367Y0139519D01*
X0100123Y0138608D01*
X0100000Y0137672D01*
X0100000Y0137378D01*
X0107022Y0137378D01*
X0107022Y0137022D01*
X0100000Y0137022D01*
X0100000Y0136728D01*
X0100123Y0135792D01*
X0100367Y0134881D01*
X0100729Y0134009D01*
X0101201Y0133191D01*
X0101775Y0132443D01*
X0102443Y0131775D01*
X0103191Y0131201D01*
X0104009Y0130729D01*
X0104881Y0130367D01*
X0105792Y0130123D01*
X0106728Y0130000D01*
X0107022Y0130000D01*
X0107022Y0137022D01*
X0107378Y0137022D01*
X0107378Y0137378D01*
X0114400Y0137378D01*
X0114400Y0137672D01*
X0114277Y0138608D01*
X0114400Y0137022D02*
X0107378Y0137022D01*
X0107378Y0130000D01*
X0107672Y0130000D01*
X0108608Y0130123D01*
X0109519Y0130367D01*
X0110391Y0130729D01*
X0111209Y0131201D01*
X0111957Y0131775D01*
X0112625Y0132443D01*
X0113199Y0133191D01*
X0113671Y0134009D01*
X0114033Y0134881D01*
X0114277Y0135792D01*
X0114400Y0136728D01*
X0114400Y0137022D01*
X0114372Y0136517D02*
X0119989Y0136517D01*
X0118702Y0134118D02*
X0113717Y0134118D01*
X0111885Y0131720D02*
X0118463Y0131720D01*
X0119100Y0129321D02*
X0076200Y0129321D01*
X0076200Y0128904D02*
X0076200Y0140496D01*
X0075591Y0141966D01*
X0070591Y0146966D01*
X0070173Y0147383D01*
X0069911Y0148016D01*
X0068016Y0149911D01*
X0065540Y0150937D01*
X0062860Y0150937D01*
X0060384Y0149911D01*
X0058489Y0148016D01*
X0057463Y0145540D01*
X0057463Y0142860D01*
X0058464Y0140444D01*
X0058384Y0140411D01*
X0057200Y0139228D01*
X0056200Y0140228D01*
X0056200Y0147996D01*
X0055591Y0149466D01*
X0054466Y0150591D01*
X0053937Y0151120D01*
X0053937Y0153540D01*
X0052911Y0156016D01*
X0051728Y0157200D01*
X0052911Y0158384D01*
X0053937Y0160860D01*
X0053937Y0163540D01*
X0052911Y0166016D01*
X0051016Y0167911D01*
X0048540Y0168937D01*
X0046120Y0168937D01*
X0044792Y0170265D01*
X0045411Y0170884D01*
X0046437Y0173360D01*
X0046437Y0176040D01*
X0045411Y0178516D01*
X0043803Y0180124D01*
X0044381Y0180702D01*
X0044949Y0181484D01*
X0045387Y0182344D01*
X0045686Y0183263D01*
X0045837Y0184217D01*
X0045837Y0184700D01*
X0045837Y0185183D01*
X0045686Y0186137D01*
X0045387Y0187056D01*
X0044949Y0187916D01*
X0044381Y0188698D01*
X0043698Y0189381D01*
X0042916Y0189949D01*
X0042056Y0190387D01*
X0041137Y0190686D01*
X0040183Y0190837D01*
X0039700Y0190837D01*
X0039700Y0184700D01*
X0039700Y0184700D01*
X0045837Y0184700D01*
X0039700Y0184700D01*
X0039700Y0184700D01*
X0039700Y0184700D01*
X0033563Y0184700D01*
X0033563Y0185183D01*
X0033714Y0186137D01*
X0034013Y0187056D01*
X0034451Y0187916D01*
X0035019Y0188698D01*
X0035702Y0189381D01*
X0036484Y0189949D01*
X0037344Y0190387D01*
X0038263Y0190686D01*
X0039217Y0190837D01*
X0039700Y0190837D01*
X0039700Y0184700D01*
X0033563Y0184700D01*
X0033563Y0184217D01*
X0033714Y0183263D01*
X0034013Y0182344D01*
X0034451Y0181484D01*
X0035019Y0180702D01*
X0035597Y0180124D01*
X0033989Y0178516D01*
X0033106Y0176384D01*
X0032887Y0177056D01*
X0032449Y0177916D01*
X0031881Y0178698D01*
X0031198Y0179381D01*
X0030416Y0179949D01*
X0029556Y0180387D01*
X0028637Y0180686D01*
X0027683Y0180837D01*
X0027200Y0180837D01*
X0027200Y0174700D01*
X0027200Y0174700D01*
X0027200Y0168563D01*
X0027683Y0168563D01*
X0028637Y0168714D01*
X0029556Y0169013D01*
X0030416Y0169451D01*
X0031198Y0170019D01*
X0031881Y0170702D01*
X0032449Y0171484D01*
X0032887Y0172344D01*
X0033106Y0173016D01*
X0033989Y0170884D01*
X0034608Y0170265D01*
X0031309Y0166966D01*
X0030700Y0165496D01*
X0030700Y0150228D01*
X0028989Y0148516D01*
X0027963Y0146040D01*
X0027963Y0143620D01*
X0026309Y0141966D01*
X0025700Y0140496D01*
X0025700Y0112768D01*
X0025637Y0112549D01*
X0025700Y0111978D01*
X0025700Y0111404D01*
X0025787Y0111194D01*
X0025812Y0110967D01*
X0026089Y0110465D01*
X0026309Y0109934D01*
X0026470Y0109773D01*
X0026580Y0109574D01*
X0027028Y0109215D01*
X0027434Y0108809D01*
X0027645Y0108722D01*
X0035463Y0102467D01*
X0035463Y0100860D01*
X0036489Y0098384D01*
X0038384Y0096489D01*
X0040860Y0095463D01*
X0041009Y0095463D01*
X0040884Y0095411D01*
X0038989Y0093516D01*
X0037963Y0091040D01*
X0037963Y0088360D01*
X0038989Y0085884D01*
X0040700Y0084172D01*
X0040700Y0080228D01*
X0038989Y0078516D01*
X0037963Y0076040D01*
X0037963Y0073360D01*
X0038989Y0070884D01*
X0040884Y0068989D01*
X0043360Y0067963D01*
X0046040Y0067963D01*
X0048516Y0068989D01*
X0050411Y0070884D01*
X0051437Y0073360D01*
X0051437Y0073435D01*
X0052884Y0071989D01*
X0055360Y0070963D01*
X0058040Y0070963D01*
X0060516Y0071989D01*
X0061700Y0073172D01*
X0062884Y0071989D01*
X0065360Y0070963D01*
X0068040Y0070963D01*
X0070516Y0071989D01*
X0071700Y0073172D01*
X0072884Y0071989D01*
X0075360Y0070963D01*
X0078040Y0070963D01*
X0080516Y0071989D01*
X0082411Y0073884D01*
X0083437Y0076360D01*
X0083437Y0077216D01*
X0083989Y0075884D01*
X0085884Y0073989D01*
X0088360Y0072963D01*
X0091040Y0072963D01*
X0093516Y0073989D01*
X0095411Y0075884D01*
X0096437Y0078360D01*
X0096437Y0081040D01*
X0095411Y0083516D01*
X0095340Y0083588D01*
X0096137Y0083714D01*
X0097056Y0084013D01*
X0097916Y0084451D01*
X0098698Y0085019D01*
X0099381Y0085702D01*
X0099949Y0086484D01*
X0100387Y0087344D01*
X0100686Y0088263D01*
X0100837Y0089217D01*
X0100837Y0089700D01*
X0100837Y0090183D01*
X0100686Y0091137D01*
X0100387Y0092056D01*
X0099949Y0092916D01*
X0099381Y0093698D01*
X0098698Y0094381D01*
X0097916Y0094949D01*
X0097056Y0095387D01*
X0096137Y0095686D01*
X0095183Y0095837D01*
X0094700Y0095837D01*
X0094700Y0089700D01*
X0094700Y0089700D01*
X0100837Y0089700D01*
X0094700Y0089700D01*
X0094700Y0089700D01*
X0094700Y0089700D01*
X0088563Y0089700D01*
X0088563Y0090183D01*
X0088714Y0091137D01*
X0089013Y0092056D01*
X0089451Y0092916D01*
X0090019Y0093698D01*
X0090702Y0094381D01*
X0091484Y0094949D01*
X0092344Y0095387D01*
X0093263Y0095686D01*
X0094217Y0095837D01*
X0094700Y0095837D01*
X0094700Y0089700D01*
X0088563Y0089700D01*
X0088563Y0089217D01*
X0088714Y0088263D01*
X0089013Y0087344D01*
X0089451Y0086484D01*
X0089485Y0086437D01*
X0088360Y0086437D01*
X0085884Y0085411D01*
X0083989Y0083516D01*
X0082963Y0081040D01*
X0082963Y0080184D01*
X0082411Y0081516D01*
X0080700Y0083228D01*
X0080700Y0083496D01*
X0080091Y0084966D01*
X0073091Y0091966D01*
X0071966Y0093091D01*
X0070496Y0093700D01*
X0070228Y0093700D01*
X0068516Y0095411D01*
X0066040Y0096437D01*
X0063360Y0096437D01*
X0060884Y0095411D01*
X0058989Y0093516D01*
X0057963Y0091040D01*
X0057963Y0088360D01*
X0058989Y0085884D01*
X0060884Y0083989D01*
X0062706Y0083234D01*
X0061700Y0082228D01*
X0060516Y0083411D01*
X0058040Y0084437D01*
X0055360Y0084437D01*
X0052884Y0083411D01*
X0050989Y0081516D01*
X0049963Y0079040D01*
X0049963Y0078965D01*
X0048700Y0080228D01*
X0048700Y0084172D01*
X0050411Y0085884D01*
X0051437Y0088360D01*
X0051437Y0091040D01*
X0050411Y0093516D01*
X0048516Y0095411D01*
X0046040Y0096437D01*
X0045891Y0096437D01*
X0046016Y0096489D01*
X0047911Y0098384D01*
X0048499Y0099803D01*
X0048984Y0099451D01*
X0049844Y0099013D01*
X0050763Y0098714D01*
X0051717Y0098563D01*
X0052200Y0098563D01*
X0052683Y0098563D01*
X0053637Y0098714D01*
X0054556Y0099013D01*
X0055416Y0099451D01*
X0056198Y0100019D01*
X0056776Y0100597D01*
X0058384Y0098989D01*
X0060860Y0097963D01*
X0063540Y0097963D01*
X0066016Y0098989D01*
X0067911Y0100884D01*
X0068937Y0103360D01*
X0068937Y0106040D01*
X0067911Y0108516D01*
X0066200Y0110228D01*
X0066200Y0118043D01*
X0074466Y0126309D01*
X0075591Y0127434D01*
X0076200Y0128904D01*
X0075079Y0126923D02*
X0098266Y0126923D01*
X0094500Y0124524D02*
X0079900Y0124524D01*
X0078752Y0125000D02*
X0075648Y0125000D01*
X0072782Y0123813D01*
X0070587Y0121618D01*
X0069400Y0118752D01*
X0069400Y0115648D01*
X0070587Y0112782D01*
X0072782Y0110587D01*
X0073200Y0110414D01*
X0073200Y0106404D01*
X0073809Y0104934D01*
X0074934Y0103809D01*
X0079934Y0098809D01*
X0081404Y0098200D01*
X0099172Y0098200D01*
X0100884Y0096489D01*
X0103360Y0095463D01*
X0106040Y0095463D01*
X0108516Y0096489D01*
X0110411Y0098384D01*
X0111437Y0100860D01*
X0111437Y0103540D01*
X0110411Y0106016D01*
X0108516Y0107911D01*
X0106040Y0108937D01*
X0103360Y0108937D01*
X0100884Y0107911D01*
X0099172Y0106200D01*
X0083857Y0106200D01*
X0081200Y0108857D01*
X0081200Y0110414D01*
X0081618Y0110587D01*
X0083813Y0112782D01*
X0085000Y0115648D01*
X0085000Y0118752D01*
X0083813Y0121618D01*
X0081618Y0123813D01*
X0078752Y0125000D01*
X0074500Y0124524D02*
X0072681Y0124524D01*
X0071095Y0122126D02*
X0070282Y0122126D01*
X0069804Y0119727D02*
X0067884Y0119727D01*
X0069400Y0117329D02*
X0066200Y0117329D01*
X0066200Y0114930D02*
X0069698Y0114930D01*
X0070838Y0112532D02*
X0066200Y0112532D01*
X0066295Y0110133D02*
X0073200Y0110133D01*
X0073200Y0107734D02*
X0068235Y0107734D01*
X0068937Y0105336D02*
X0073643Y0105336D01*
X0075806Y0102937D02*
X0068762Y0102937D01*
X0067567Y0100539D02*
X0078204Y0100539D01*
X0082200Y0102200D02*
X0077200Y0107200D01*
X0077200Y0117200D01*
X0083305Y0122126D02*
X0091095Y0122126D01*
X0089804Y0119727D02*
X0084596Y0119727D01*
X0085000Y0117329D02*
X0089400Y0117329D01*
X0089698Y0114930D02*
X0084702Y0114930D01*
X0083562Y0112532D02*
X0090838Y0112532D01*
X0093879Y0110133D02*
X0081200Y0110133D01*
X0082322Y0107734D02*
X0100707Y0107734D01*
X0100521Y0110133D02*
X0113879Y0110133D01*
X0110838Y0112532D02*
X0103562Y0112532D01*
X0104702Y0114930D02*
X0109698Y0114930D01*
X0109400Y0117329D02*
X0105000Y0117329D01*
X0104596Y0119727D02*
X0109804Y0119727D01*
X0117200Y0117200D02*
X0122200Y0117200D01*
X0137200Y0102200D01*
X0137200Y0097200D01*
X0139704Y0090945D02*
X0160463Y0090945D01*
X0160463Y0093343D02*
X0142871Y0093343D01*
X0143888Y0095742D02*
X0161375Y0095742D01*
X0163937Y0098140D02*
X0143937Y0098140D01*
X0143109Y0100539D02*
X0152682Y0100539D01*
X0152519Y0100702D02*
X0153202Y0100019D01*
X0153984Y0099451D01*
X0154844Y0099013D01*
X0155763Y0098714D01*
X0156717Y0098563D01*
X0157200Y0098563D01*
X0157200Y0104700D01*
X0157200Y0104700D01*
X0157200Y0104700D01*
X0151063Y0104700D01*
X0151063Y0105183D01*
X0151214Y0106137D01*
X0151513Y0107056D01*
X0151951Y0107916D01*
X0152519Y0108698D01*
X0153202Y0109381D01*
X0153984Y0109949D01*
X0154844Y0110387D01*
X0155763Y0110686D01*
X0156717Y0110837D01*
X0157200Y0110837D01*
X0157200Y0104700D01*
X0151063Y0104700D01*
X0151063Y0104217D01*
X0151214Y0103263D01*
X0151513Y0102344D01*
X0151951Y0101484D01*
X0152519Y0100702D01*
X0151320Y0102937D02*
X0147893Y0102937D01*
X0150099Y0105336D02*
X0151087Y0105336D01*
X0150937Y0107734D02*
X0151858Y0107734D01*
X0150899Y0110133D02*
X0154345Y0110133D01*
X0157200Y0110133D02*
X0157200Y0110133D01*
X0157200Y0107734D02*
X0157200Y0107734D01*
X0160055Y0110133D02*
X0163105Y0110133D01*
X0157200Y0105336D02*
X0157200Y0105336D01*
X0157200Y0102937D02*
X0157200Y0102937D01*
X0157200Y0100539D02*
X0157200Y0100539D01*
X0161718Y0100539D02*
X0161833Y0100539D01*
X0167200Y0092200D02*
X0172200Y0092200D01*
X0179700Y0084700D01*
X0179700Y0072200D01*
X0182200Y0072200D01*
X0187200Y0077200D01*
X0187200Y0119700D01*
X0179700Y0127200D01*
X0173516Y0124524D02*
X0149552Y0124524D01*
X0150756Y0126923D02*
X0172963Y0126923D01*
X0173287Y0129321D02*
X0170161Y0129321D01*
X0167200Y0129321D02*
X0167200Y0129321D01*
X0167200Y0128563D02*
X0167200Y0134700D01*
X0167200Y0134700D01*
X0167200Y0128563D01*
X0164239Y0129321D02*
X0161349Y0129321D01*
X0167200Y0131720D02*
X0167200Y0131720D01*
X0167200Y0134118D02*
X0167200Y0134118D01*
X0167200Y0136517D02*
X0167200Y0136517D01*
X0167200Y0138915D02*
X0167200Y0138915D01*
X0171664Y0138915D02*
X0188200Y0138915D01*
X0188200Y0136517D02*
X0173063Y0136517D01*
X0173321Y0134118D02*
X0188200Y0134118D01*
X0188200Y0131720D02*
X0184708Y0131720D01*
X0186113Y0129321D02*
X0188200Y0129321D01*
X0188200Y0126923D02*
X0186437Y0126923D01*
X0188033Y0124524D02*
X0188200Y0124524D01*
X0179700Y0117200D02*
X0179700Y0102200D01*
X0175700Y0107734D02*
X0173235Y0107734D01*
X0171295Y0110133D02*
X0175700Y0110133D01*
X0174841Y0112532D02*
X0149896Y0112532D01*
X0150937Y0129321D02*
X0153051Y0129321D01*
X0151142Y0131720D02*
X0150241Y0131720D01*
X0150463Y0134118D02*
X0148646Y0134118D01*
X0152200Y0139700D02*
X0144700Y0139700D01*
X0150215Y0143712D02*
X0188200Y0143712D01*
X0188200Y0146111D02*
X0182604Y0146111D01*
X0185463Y0148509D02*
X0188200Y0148509D01*
X0188200Y0150908D02*
X0186437Y0150908D01*
X0186437Y0153306D02*
X0188200Y0153306D01*
X0188200Y0155705D02*
X0185540Y0155705D01*
X0183053Y0158103D02*
X0188200Y0158103D01*
X0188200Y0160502D02*
X0151437Y0160502D01*
X0151331Y0158103D02*
X0156347Y0158103D01*
X0159700Y0152200D02*
X0147200Y0152200D01*
X0144700Y0149700D01*
X0139700Y0149700D01*
X0137200Y0147200D01*
X0137200Y0131200D01*
X0140200Y0128200D01*
X0143700Y0128200D01*
X0144200Y0128700D01*
X0152200Y0139700D02*
X0157200Y0134700D01*
X0162512Y0138915D02*
X0162736Y0138915D01*
X0158838Y0141314D02*
X0188200Y0141314D01*
X0176796Y0146111D02*
X0172604Y0146111D01*
X0166796Y0146111D02*
X0162604Y0146111D01*
X0156796Y0146111D02*
X0150505Y0146111D01*
X0155591Y0141966D02*
X0155591Y0141966D01*
X0159700Y0152200D02*
X0169700Y0152200D01*
X0166347Y0158103D02*
X0163053Y0158103D01*
X0173053Y0158103D02*
X0176347Y0158103D01*
X0186046Y0167697D02*
X0135119Y0167697D01*
X0131281Y0167697D02*
X0120854Y0167697D01*
X0118456Y0165299D02*
X0127771Y0165299D01*
X0126612Y0162900D02*
X0116057Y0162900D01*
X0114275Y0160502D02*
X0126463Y0160502D01*
X0121847Y0158103D02*
X0115000Y0158103D01*
X0115000Y0155705D02*
X0119360Y0155705D01*
X0118463Y0153306D02*
X0114030Y0153306D01*
X0111939Y0150908D02*
X0118463Y0150908D01*
X0119437Y0148509D02*
X0069418Y0148509D01*
X0065611Y0150908D02*
X0082461Y0150908D01*
X0082782Y0150587D02*
X0085648Y0149400D01*
X0088752Y0149400D01*
X0091618Y0150587D01*
X0093813Y0152782D01*
X0095000Y0155648D01*
X0095000Y0158752D01*
X0093813Y0161618D01*
X0091618Y0163813D01*
X0088752Y0165000D01*
X0085648Y0165000D01*
X0082782Y0163813D01*
X0080587Y0161618D01*
X0079400Y0158752D01*
X0079400Y0155648D01*
X0080587Y0152782D01*
X0082782Y0150587D01*
X0080370Y0153306D02*
X0053937Y0153306D01*
X0054149Y0150908D02*
X0062789Y0150908D01*
X0058982Y0148509D02*
X0055987Y0148509D01*
X0056200Y0146111D02*
X0057699Y0146111D01*
X0057463Y0143712D02*
X0056200Y0143712D01*
X0056200Y0141314D02*
X0058103Y0141314D01*
X0064200Y0144200D02*
X0064700Y0144700D01*
X0067200Y0144700D01*
X0072200Y0139700D01*
X0072200Y0129700D01*
X0062200Y0119700D01*
X0062200Y0104700D01*
X0056833Y0100539D02*
X0056718Y0100539D01*
X0060431Y0098140D02*
X0047668Y0098140D01*
X0047718Y0095742D02*
X0061682Y0095742D01*
X0063968Y0098140D02*
X0099232Y0098140D01*
X0095783Y0095742D02*
X0102686Y0095742D01*
X0099639Y0093343D02*
X0114029Y0093343D01*
X0113989Y0093384D02*
X0115884Y0091489D01*
X0118360Y0090463D01*
X0121040Y0090463D01*
X0123516Y0091489D01*
X0125411Y0093384D01*
X0126437Y0095860D01*
X0126437Y0098540D01*
X0125411Y0101016D01*
X0123516Y0102911D01*
X0121040Y0103937D01*
X0118360Y0103937D01*
X0115884Y0102911D01*
X0113989Y0101016D01*
X0112963Y0098540D01*
X0112963Y0095860D01*
X0113989Y0093384D01*
X0113012Y0095742D02*
X0106714Y0095742D01*
X0110168Y0098140D02*
X0112963Y0098140D01*
X0113791Y0100539D02*
X0111304Y0100539D01*
X0111437Y0102937D02*
X0115947Y0102937D01*
X0110693Y0105336D02*
X0128407Y0105336D01*
X0130806Y0102937D02*
X0123453Y0102937D01*
X0125609Y0100539D02*
X0131291Y0100539D01*
X0130463Y0098140D02*
X0126437Y0098140D01*
X0126388Y0095742D02*
X0130512Y0095742D01*
X0131529Y0093343D02*
X0125371Y0093343D01*
X0122204Y0090945D02*
X0134696Y0090945D01*
X0135860Y0083937D02*
X0133384Y0082911D01*
X0131489Y0081016D01*
X0130463Y0078540D01*
X0130463Y0075860D01*
X0131489Y0073384D01*
X0133384Y0071489D01*
X0135860Y0070463D01*
X0138540Y0070463D01*
X0141016Y0071489D01*
X0142911Y0073384D01*
X0143937Y0075860D01*
X0143937Y0078540D01*
X0142911Y0081016D01*
X0141016Y0082911D01*
X0138540Y0083937D01*
X0135860Y0083937D01*
X0135407Y0083749D02*
X0096246Y0083749D01*
X0096308Y0081351D02*
X0115172Y0081351D01*
X0115019Y0081198D02*
X0115702Y0081881D01*
X0116484Y0082449D01*
X0117344Y0082887D01*
X0118263Y0083186D01*
X0119217Y0083337D01*
X0119700Y0083337D01*
X0119700Y0077200D01*
X0119700Y0077200D01*
X0125837Y0077200D01*
X0125837Y0077683D01*
X0125686Y0078637D01*
X0125387Y0079556D01*
X0124949Y0080416D01*
X0124381Y0081198D01*
X0123698Y0081881D01*
X0122916Y0082449D01*
X0122056Y0082887D01*
X0121137Y0083186D01*
X0120183Y0083337D01*
X0119700Y0083337D01*
X0119700Y0077200D01*
X0119700Y0077200D01*
X0119700Y0077200D01*
X0113563Y0077200D01*
X0113563Y0077683D01*
X0113714Y0078637D01*
X0114013Y0079556D01*
X0114451Y0080416D01*
X0115019Y0081198D01*
X0113817Y0078952D02*
X0096437Y0078952D01*
X0095689Y0076554D02*
X0099526Y0076554D01*
X0098989Y0076016D02*
X0100884Y0077911D01*
X0103360Y0078937D01*
X0106040Y0078937D01*
X0108516Y0077911D01*
X0110411Y0076016D01*
X0111437Y0073540D01*
X0111437Y0070860D01*
X0110411Y0068384D01*
X0108516Y0066489D01*
X0106040Y0065463D01*
X0103360Y0065463D01*
X0100884Y0066489D01*
X0098989Y0068384D01*
X0097963Y0070860D01*
X0097963Y0073540D01*
X0098989Y0076016D01*
X0098218Y0074155D02*
X0093683Y0074155D01*
X0097963Y0071757D02*
X0079957Y0071757D01*
X0082524Y0074155D02*
X0085717Y0074155D01*
X0083711Y0076554D02*
X0083437Y0076554D01*
X0083092Y0081351D02*
X0082480Y0081351D01*
X0084222Y0083749D02*
X0080595Y0083749D01*
X0078909Y0086148D02*
X0087662Y0086148D01*
X0088669Y0088546D02*
X0076510Y0088546D01*
X0074112Y0090945D02*
X0088684Y0090945D01*
X0089761Y0093343D02*
X0071356Y0093343D01*
X0069700Y0089700D02*
X0064700Y0089700D01*
X0061461Y0083749D02*
X0059700Y0083749D01*
X0058879Y0086148D02*
X0050521Y0086148D01*
X0051437Y0088546D02*
X0057963Y0088546D01*
X0057963Y0090945D02*
X0051437Y0090945D01*
X0050483Y0093343D02*
X0058917Y0093343D01*
X0052200Y0098563D02*
X0052200Y0104700D01*
X0052200Y0104700D01*
X0052200Y0110837D01*
X0052683Y0110837D01*
X0053637Y0110686D01*
X0054556Y0110387D01*
X0055416Y0109949D01*
X0056198Y0109381D01*
X0056776Y0108803D01*
X0058200Y0110228D01*
X0058200Y0118904D01*
X0058200Y0120496D01*
X0058809Y0121966D01*
X0065701Y0128858D01*
X0063540Y0127963D01*
X0060860Y0127963D01*
X0058384Y0128989D01*
X0057200Y0130172D01*
X0056016Y0128989D01*
X0053540Y0127963D01*
X0050860Y0127963D01*
X0048384Y0128989D01*
X0048217Y0129156D01*
X0046861Y0128704D01*
X0046437Y0128280D01*
X0046437Y0122706D01*
X0046011Y0121677D01*
X0045223Y0120889D01*
X0044194Y0120463D01*
X0043700Y0120463D01*
X0043700Y0120228D01*
X0045411Y0118516D01*
X0046437Y0116040D01*
X0046437Y0113360D01*
X0045411Y0110884D01*
X0043516Y0108989D01*
X0043391Y0108937D01*
X0043540Y0108937D01*
X0046016Y0107911D01*
X0046634Y0107294D01*
X0046951Y0107916D01*
X0047519Y0108698D01*
X0048202Y0109381D01*
X0048984Y0109949D01*
X0049844Y0110387D01*
X0050763Y0110686D01*
X0051717Y0110837D01*
X0052200Y0110837D01*
X0052200Y0104700D01*
X0052200Y0104700D01*
X0052200Y0098563D01*
X0052200Y0100539D02*
X0052200Y0100539D01*
X0052200Y0102937D02*
X0052200Y0102937D01*
X0052200Y0105336D02*
X0052200Y0105336D01*
X0052200Y0107734D02*
X0052200Y0107734D01*
X0052200Y0110133D02*
X0052200Y0110133D01*
X0055055Y0110133D02*
X0058105Y0110133D01*
X0058200Y0112532D02*
X0046094Y0112532D01*
X0046437Y0114930D02*
X0058200Y0114930D01*
X0058200Y0117329D02*
X0045903Y0117329D01*
X0044200Y0119727D02*
X0058200Y0119727D01*
X0058969Y0122126D02*
X0046197Y0122126D01*
X0046437Y0124524D02*
X0061367Y0124524D01*
X0063766Y0126923D02*
X0046437Y0126923D01*
X0044700Y0132200D02*
X0052200Y0134700D01*
X0052200Y0147200D01*
X0047200Y0152200D01*
X0053040Y0155705D02*
X0079400Y0155705D01*
X0079400Y0158103D02*
X0067086Y0158103D01*
X0068016Y0158489D02*
X0065540Y0157463D01*
X0062860Y0157463D01*
X0060384Y0158489D01*
X0058489Y0160384D01*
X0057463Y0162860D01*
X0057463Y0165540D01*
X0058489Y0168016D01*
X0060384Y0169911D01*
X0062860Y0170937D01*
X0063967Y0170937D01*
X0062963Y0173360D01*
X0062963Y0176040D01*
X0063989Y0178516D01*
X0065172Y0179700D01*
X0063989Y0180884D01*
X0062963Y0183360D01*
X0062963Y0186040D01*
X0063989Y0188516D01*
X0065884Y0190411D01*
X0068360Y0191437D01*
X0071040Y0191437D01*
X0073516Y0190411D01*
X0075411Y0188516D01*
X0076437Y0186040D01*
X0076437Y0183360D01*
X0075411Y0180884D01*
X0074228Y0179700D01*
X0075411Y0178516D01*
X0076437Y0176040D01*
X0076437Y0173360D01*
X0075411Y0170884D01*
X0073516Y0168989D01*
X0071040Y0167963D01*
X0069933Y0167963D01*
X0070937Y0165540D01*
X0070937Y0162860D01*
X0069911Y0160384D01*
X0068016Y0158489D01*
X0069960Y0160502D02*
X0080125Y0160502D01*
X0081869Y0162900D02*
X0070937Y0162900D01*
X0070937Y0165299D02*
X0107142Y0165299D01*
X0109540Y0167697D02*
X0070043Y0167697D01*
X0074623Y0170096D02*
X0083969Y0170096D01*
X0082782Y0170587D02*
X0085648Y0169400D01*
X0088752Y0169400D01*
X0091618Y0170587D01*
X0093813Y0172782D01*
X0095000Y0175648D01*
X0095000Y0178752D01*
X0093813Y0181618D01*
X0091618Y0183813D01*
X0088752Y0185000D01*
X0085648Y0185000D01*
X0082782Y0183813D01*
X0080587Y0181618D01*
X0079400Y0178752D01*
X0079400Y0175648D01*
X0080587Y0172782D01*
X0082782Y0170587D01*
X0080875Y0172494D02*
X0076078Y0172494D01*
X0076437Y0174893D02*
X0079713Y0174893D01*
X0079400Y0177291D02*
X0075919Y0177291D01*
X0074238Y0179690D02*
X0079789Y0179690D01*
X0081057Y0182088D02*
X0075910Y0182088D01*
X0076437Y0184487D02*
X0084410Y0184487D01*
X0089990Y0184487D02*
X0104410Y0184487D01*
X0105648Y0185000D02*
X0102782Y0183813D01*
X0100587Y0181618D01*
X0099400Y0178752D01*
X0099400Y0175648D01*
X0100587Y0172782D01*
X0102782Y0170587D01*
X0105648Y0169400D01*
X0108752Y0169400D01*
X0111618Y0170587D01*
X0113813Y0172782D01*
X0115000Y0175648D01*
X0115000Y0178752D01*
X0113813Y0181618D01*
X0111618Y0183813D01*
X0108752Y0185000D01*
X0105648Y0185000D01*
X0109990Y0184487D02*
X0131802Y0184487D01*
X0134598Y0184487D02*
X0153355Y0184487D01*
X0152963Y0182088D02*
X0113343Y0182088D01*
X0114611Y0179690D02*
X0153448Y0179690D01*
X0155081Y0177291D02*
X0115000Y0177291D01*
X0114687Y0174893D02*
X0116736Y0174893D01*
X0114337Y0172494D02*
X0113525Y0172494D01*
X0111939Y0170096D02*
X0110431Y0170096D01*
X0103969Y0170096D02*
X0090431Y0170096D01*
X0093525Y0172494D02*
X0100875Y0172494D01*
X0099713Y0174893D02*
X0094687Y0174893D01*
X0095000Y0177291D02*
X0099400Y0177291D01*
X0099789Y0179690D02*
X0094611Y0179690D01*
X0093343Y0182088D02*
X0101057Y0182088D01*
X0101869Y0162900D02*
X0092531Y0162900D01*
X0094275Y0160502D02*
X0100125Y0160502D01*
X0099400Y0158103D02*
X0095000Y0158103D01*
X0095000Y0155705D02*
X0099400Y0155705D01*
X0100370Y0153306D02*
X0094030Y0153306D01*
X0091939Y0150908D02*
X0102461Y0150908D01*
X0104107Y0143712D02*
X0091719Y0143712D01*
X0091618Y0143813D02*
X0088752Y0145000D01*
X0085648Y0145000D01*
X0082782Y0143813D01*
X0080587Y0141618D01*
X0079400Y0138752D01*
X0079400Y0135648D01*
X0080587Y0132782D01*
X0082782Y0130587D01*
X0085648Y0129400D01*
X0088752Y0129400D01*
X0091618Y0130587D01*
X0093813Y0132782D01*
X0095000Y0135648D01*
X0095000Y0138752D01*
X0093813Y0141618D01*
X0091618Y0143813D01*
X0093939Y0141314D02*
X0101281Y0141314D01*
X0100206Y0138915D02*
X0094932Y0138915D01*
X0095000Y0136517D02*
X0100028Y0136517D01*
X0100683Y0134118D02*
X0094366Y0134118D01*
X0092750Y0131720D02*
X0102515Y0131720D01*
X0107022Y0131720D02*
X0107378Y0131720D01*
X0107378Y0134118D02*
X0107022Y0134118D01*
X0107022Y0136517D02*
X0107378Y0136517D01*
X0107378Y0138915D02*
X0107022Y0138915D01*
X0107022Y0141314D02*
X0107378Y0141314D01*
X0107378Y0143712D02*
X0107022Y0143712D01*
X0110293Y0143712D02*
X0133200Y0143712D01*
X0133200Y0146111D02*
X0128104Y0146111D01*
X0131742Y0148509D02*
X0133413Y0148509D01*
X0134565Y0150908D02*
X0135251Y0150908D01*
X0136745Y0153306D02*
X0137954Y0153306D01*
X0137232Y0155705D02*
X0139168Y0155705D01*
X0144700Y0159700D02*
X0142200Y0162200D01*
X0134200Y0162200D01*
X0133200Y0161200D01*
X0133200Y0155200D01*
X0130200Y0152200D01*
X0125200Y0152200D01*
X0122296Y0146111D02*
X0071446Y0146111D01*
X0073845Y0143712D02*
X0082681Y0143712D01*
X0080461Y0141314D02*
X0075861Y0141314D01*
X0076200Y0138915D02*
X0079468Y0138915D01*
X0079400Y0136517D02*
X0076200Y0136517D01*
X0076200Y0134118D02*
X0080034Y0134118D01*
X0081650Y0131720D02*
X0076200Y0131720D01*
X0062200Y0134700D02*
X0052200Y0134700D01*
X0056349Y0129321D02*
X0058051Y0129321D01*
X0044700Y0132200D02*
X0039700Y0127200D01*
X0039700Y0114700D01*
X0044661Y0110133D02*
X0049345Y0110133D01*
X0046858Y0107734D02*
X0046193Y0107734D01*
X0042200Y0102200D02*
X0029700Y0112200D01*
X0029700Y0139700D01*
X0034700Y0144700D01*
X0034700Y0164700D01*
X0039700Y0169700D01*
X0039700Y0174700D01*
X0039700Y0169700D02*
X0047200Y0162200D01*
X0053209Y0165299D02*
X0057463Y0165299D01*
X0057463Y0162900D02*
X0053937Y0162900D01*
X0053789Y0160502D02*
X0058440Y0160502D01*
X0061314Y0158103D02*
X0052631Y0158103D01*
X0051230Y0167697D02*
X0058357Y0167697D01*
X0060829Y0170096D02*
X0044961Y0170096D01*
X0046078Y0172494D02*
X0063322Y0172494D01*
X0062963Y0174893D02*
X0046437Y0174893D01*
X0045919Y0177291D02*
X0063481Y0177291D01*
X0065162Y0179690D02*
X0044238Y0179690D01*
X0045257Y0182088D02*
X0063490Y0182088D01*
X0062963Y0184487D02*
X0045837Y0184487D01*
X0045443Y0186885D02*
X0063313Y0186885D01*
X0064756Y0189284D02*
X0043795Y0189284D01*
X0039700Y0189284D02*
X0039700Y0189284D01*
X0039700Y0186885D02*
X0039700Y0186885D01*
X0035605Y0189284D02*
X0005000Y0189284D01*
X0005000Y0186885D02*
X0033957Y0186885D01*
X0033563Y0184487D02*
X0005000Y0184487D01*
X0005000Y0182088D02*
X0034143Y0182088D01*
X0035162Y0179690D02*
X0030773Y0179690D01*
X0032767Y0177291D02*
X0033481Y0177291D01*
X0033322Y0172494D02*
X0032936Y0172494D01*
X0034439Y0170096D02*
X0031275Y0170096D01*
X0032040Y0167697D02*
X0005000Y0167697D01*
X0005000Y0170096D02*
X0010509Y0170096D01*
X0010463Y0170206D02*
X0010889Y0169177D01*
X0011677Y0168389D01*
X0012706Y0167963D01*
X0021694Y0167963D01*
X0022723Y0168389D01*
X0023511Y0169177D01*
X0023707Y0169652D01*
X0023984Y0169451D01*
X0024844Y0169013D01*
X0025763Y0168714D01*
X0026717Y0168563D01*
X0027200Y0168563D01*
X0027200Y0174700D01*
X0027200Y0174700D01*
X0027200Y0180837D01*
X0026717Y0180837D01*
X0025763Y0180686D01*
X0024844Y0180387D01*
X0023984Y0179949D01*
X0023707Y0179748D01*
X0023511Y0180223D01*
X0022723Y0181011D01*
X0021694Y0181437D01*
X0012706Y0181437D01*
X0011677Y0181011D01*
X0010889Y0180223D01*
X0010463Y0179194D01*
X0010463Y0170206D01*
X0010463Y0172494D02*
X0005000Y0172494D01*
X0005000Y0174893D02*
X0010463Y0174893D01*
X0010463Y0177291D02*
X0005000Y0177291D01*
X0005000Y0179690D02*
X0010668Y0179690D01*
X0005000Y0191682D02*
X0126463Y0191682D01*
X0127101Y0194081D02*
X0005000Y0194081D01*
X0027200Y0179690D02*
X0027200Y0179690D01*
X0027200Y0177291D02*
X0027200Y0177291D01*
X0027200Y0174893D02*
X0027200Y0174893D01*
X0027200Y0172494D02*
X0027200Y0172494D01*
X0027200Y0170096D02*
X0027200Y0170096D01*
X0030700Y0165299D02*
X0005000Y0165299D01*
X0005000Y0162900D02*
X0030700Y0162900D01*
X0030700Y0160502D02*
X0005000Y0160502D01*
X0005000Y0158103D02*
X0030700Y0158103D01*
X0030700Y0155705D02*
X0005000Y0155705D01*
X0005000Y0153306D02*
X0030700Y0153306D01*
X0030700Y0150908D02*
X0017318Y0150908D01*
X0020414Y0148509D02*
X0028986Y0148509D01*
X0027992Y0146111D02*
X0021408Y0146111D01*
X0021437Y0143712D02*
X0027963Y0143712D01*
X0026039Y0141314D02*
X0020589Y0141314D01*
X0018700Y0138915D02*
X0025700Y0138915D01*
X0025700Y0136517D02*
X0018700Y0136517D01*
X0018700Y0134118D02*
X0025700Y0134118D01*
X0025700Y0131720D02*
X0018700Y0131720D01*
X0017478Y0129321D02*
X0025700Y0129321D01*
X0025700Y0126923D02*
X0016437Y0126923D01*
X0015884Y0124524D02*
X0025700Y0124524D01*
X0025700Y0122126D02*
X0014153Y0122126D01*
X0016216Y0119727D02*
X0025700Y0119727D01*
X0025700Y0117329D02*
X0016437Y0117329D01*
X0016437Y0114930D02*
X0025700Y0114930D01*
X0025639Y0112532D02*
X0016437Y0112532D01*
X0016407Y0110133D02*
X0026227Y0110133D01*
X0028879Y0107734D02*
X0016193Y0107734D01*
X0018193Y0105336D02*
X0031877Y0105336D01*
X0034875Y0102937D02*
X0018937Y0102937D01*
X0018804Y0100539D02*
X0035596Y0100539D01*
X0036732Y0098140D02*
X0017668Y0098140D01*
X0017718Y0095742D02*
X0040186Y0095742D01*
X0038917Y0093343D02*
X0020483Y0093343D01*
X0021437Y0090945D02*
X0037963Y0090945D01*
X0037963Y0088546D02*
X0021437Y0088546D01*
X0020521Y0086148D02*
X0038879Y0086148D01*
X0040700Y0083749D02*
X0017939Y0083749D01*
X0016248Y0081351D02*
X0040700Y0081351D01*
X0039425Y0078952D02*
X0019975Y0078952D01*
X0020411Y0078516D02*
X0018516Y0080411D01*
X0016040Y0081437D01*
X0013360Y0081437D01*
X0010884Y0080411D01*
X0008989Y0078516D01*
X0007963Y0076040D01*
X0007963Y0073360D01*
X0008989Y0070884D01*
X0010884Y0068989D01*
X0013360Y0067963D01*
X0016040Y0067963D01*
X0018516Y0068989D01*
X0020411Y0070884D01*
X0021437Y0073360D01*
X0021437Y0076040D01*
X0020411Y0078516D01*
X0021224Y0076554D02*
X0038176Y0076554D01*
X0037963Y0074155D02*
X0021437Y0074155D01*
X0020773Y0071757D02*
X0038627Y0071757D01*
X0040514Y0069358D02*
X0018886Y0069358D01*
X0017056Y0065387D02*
X0016137Y0065686D01*
X0015183Y0065837D01*
X0014700Y0065837D01*
X0014700Y0059700D01*
X0020837Y0059700D01*
X0020837Y0060183D01*
X0020686Y0061137D01*
X0020387Y0062056D01*
X0019949Y0062916D01*
X0019381Y0063698D01*
X0018698Y0064381D01*
X0017916Y0064949D01*
X0017056Y0065387D01*
X0018450Y0064561D02*
X0040034Y0064561D01*
X0040884Y0065411D02*
X0038989Y0063516D01*
X0037963Y0061040D01*
X0037963Y0058360D01*
X0038989Y0055884D01*
X0040884Y0053989D01*
X0043360Y0052963D01*
X0046040Y0052963D01*
X0048516Y0053989D01*
X0050411Y0055884D01*
X0051437Y0058360D01*
X0051437Y0061040D01*
X0050411Y0063516D01*
X0048516Y0065411D01*
X0046040Y0066437D01*
X0043360Y0066437D01*
X0040884Y0065411D01*
X0038428Y0062163D02*
X0020333Y0062163D01*
X0020837Y0059764D02*
X0037963Y0059764D01*
X0038375Y0057366D02*
X0020394Y0057366D01*
X0020387Y0057344D02*
X0020686Y0058263D01*
X0020837Y0059217D01*
X0020837Y0059700D01*
X0014700Y0059700D01*
X0014700Y0059700D01*
X0014700Y0059700D01*
X0014700Y0053563D01*
X0015183Y0053563D01*
X0016137Y0053714D01*
X0017056Y0054013D01*
X0017916Y0054451D01*
X0018698Y0055019D01*
X0019381Y0055702D01*
X0019949Y0056484D01*
X0020387Y0057344D01*
X0018627Y0054967D02*
X0039905Y0054967D01*
X0036040Y0048937D02*
X0033360Y0048937D01*
X0030884Y0047911D01*
X0028989Y0046016D01*
X0027963Y0043540D01*
X0027963Y0040860D01*
X0028989Y0038384D01*
X0030884Y0036489D01*
X0033360Y0035463D01*
X0036040Y0035463D01*
X0038516Y0036489D01*
X0040411Y0038384D01*
X0041437Y0040860D01*
X0041437Y0043540D01*
X0040411Y0046016D01*
X0038516Y0047911D01*
X0036040Y0048937D01*
X0038656Y0047772D02*
X0053907Y0047772D01*
X0053384Y0047989D02*
X0055860Y0046963D01*
X0058540Y0046963D01*
X0061016Y0047989D01*
X0062200Y0049172D01*
X0063384Y0047989D01*
X0065860Y0046963D01*
X0067806Y0046963D01*
X0063780Y0042937D01*
X0061360Y0042937D01*
X0058884Y0041911D01*
X0056989Y0040016D01*
X0055963Y0037540D01*
X0055963Y0034860D01*
X0056989Y0032384D01*
X0058060Y0031313D01*
X0057788Y0031200D01*
X0050228Y0031200D01*
X0048516Y0032911D01*
X0046040Y0033937D01*
X0043360Y0033937D01*
X0040884Y0032911D01*
X0038989Y0031016D01*
X0038266Y0029272D01*
X0036551Y0028700D01*
X0036404Y0028700D01*
X0035800Y0028450D01*
X0035180Y0028243D01*
X0035070Y0028147D01*
X0034934Y0028091D01*
X0034472Y0027629D01*
X0033978Y0027200D01*
X0033913Y0027069D01*
X0033809Y0026966D01*
X0033559Y0026362D01*
X0033266Y0025777D01*
X0033256Y0025631D01*
X0033200Y0025496D01*
X0033200Y0024842D01*
X0033154Y0024190D01*
X0033200Y0024051D01*
X0033200Y0018937D01*
X0032706Y0018937D01*
X0031677Y0018511D01*
X0030889Y0017723D01*
X0030463Y0016694D01*
X0030463Y0007706D01*
X0030889Y0006677D01*
X0031677Y0005889D01*
X0032706Y0005463D01*
X0041694Y0005463D01*
X0042723Y0005889D01*
X0043511Y0006677D01*
X0043937Y0007706D01*
X0043937Y0008508D01*
X0043989Y0008384D01*
X0045884Y0006489D01*
X0048360Y0005463D01*
X0051040Y0005463D01*
X0053516Y0006489D01*
X0055411Y0008384D01*
X0056437Y0010860D01*
X0056437Y0013540D01*
X0055411Y0016016D01*
X0053516Y0017911D01*
X0051040Y0018937D01*
X0048360Y0018937D01*
X0045884Y0017911D01*
X0043989Y0016016D01*
X0043937Y0015891D01*
X0043937Y0016694D01*
X0043511Y0017723D01*
X0042723Y0018511D01*
X0041694Y0018937D01*
X0041200Y0018937D01*
X0041200Y0021358D01*
X0043360Y0020463D01*
X0046040Y0020463D01*
X0048516Y0021489D01*
X0050228Y0023200D01*
X0053029Y0023200D01*
X0053989Y0020884D01*
X0055884Y0018989D01*
X0058360Y0017963D01*
X0061040Y0017963D01*
X0063516Y0018989D01*
X0065411Y0020884D01*
X0066437Y0023360D01*
X0066437Y0026040D01*
X0065411Y0028516D01*
X0064340Y0029587D01*
X0066516Y0030489D01*
X0067700Y0031672D01*
X0068884Y0030489D01*
X0071360Y0029463D01*
X0074040Y0029463D01*
X0076516Y0030489D01*
X0078411Y0032384D01*
X0079437Y0034860D01*
X0079437Y0037540D01*
X0078411Y0040016D01*
X0076516Y0041911D01*
X0074785Y0042628D01*
X0079466Y0047309D01*
X0079530Y0047373D01*
X0081016Y0047989D01*
X0082911Y0049884D01*
X0083937Y0052360D01*
X0083937Y0055040D01*
X0082911Y0057516D01*
X0081016Y0059411D01*
X0078540Y0060437D01*
X0075860Y0060437D01*
X0073384Y0059411D01*
X0072200Y0058228D01*
X0071016Y0059411D01*
X0068540Y0060437D01*
X0065860Y0060437D01*
X0063384Y0059411D01*
X0062200Y0058228D01*
X0061016Y0059411D01*
X0058540Y0060437D01*
X0055860Y0060437D01*
X0053384Y0059411D01*
X0051489Y0057516D01*
X0050463Y0055040D01*
X0050463Y0052360D01*
X0051489Y0049884D01*
X0053384Y0047989D01*
X0051370Y0050170D02*
X0005000Y0050170D01*
X0005000Y0052569D02*
X0050463Y0052569D01*
X0050463Y0054967D02*
X0049495Y0054967D01*
X0051025Y0057366D02*
X0051426Y0057366D01*
X0051437Y0059764D02*
X0054236Y0059764D01*
X0050972Y0062163D02*
X0083428Y0062163D01*
X0082963Y0061040D02*
X0083989Y0063516D01*
X0085884Y0065411D01*
X0088360Y0066437D01*
X0091040Y0066437D01*
X0093516Y0065411D01*
X0095411Y0063516D01*
X0096437Y0061040D01*
X0096437Y0058360D01*
X0095411Y0055884D01*
X0093516Y0053989D01*
X0091040Y0052963D01*
X0088360Y0052963D01*
X0085884Y0053989D01*
X0083989Y0055884D01*
X0082963Y0058360D01*
X0082963Y0061040D01*
X0082963Y0059764D02*
X0080164Y0059764D01*
X0082974Y0057366D02*
X0083375Y0057366D01*
X0083937Y0054967D02*
X0084905Y0054967D01*
X0083937Y0052569D02*
X0096096Y0052569D01*
X0096489Y0053516D02*
X0095463Y0051040D01*
X0095463Y0048360D01*
X0096489Y0045884D01*
X0098384Y0043989D01*
X0098509Y0043937D01*
X0095860Y0043937D01*
X0093384Y0042911D01*
X0091489Y0041016D01*
X0090463Y0038540D01*
X0090463Y0035860D01*
X0091489Y0033384D01*
X0093384Y0031489D01*
X0095860Y0030463D01*
X0098540Y0030463D01*
X0101016Y0031489D01*
X0102911Y0033384D01*
X0103937Y0035860D01*
X0103937Y0038540D01*
X0102911Y0041016D01*
X0101016Y0042911D01*
X0100891Y0042963D01*
X0103540Y0042963D01*
X0106016Y0043989D01*
X0107911Y0045884D01*
X0108937Y0048360D01*
X0108937Y0051040D01*
X0107911Y0053516D01*
X0106016Y0055411D01*
X0103540Y0056437D01*
X0100860Y0056437D01*
X0098384Y0055411D01*
X0096489Y0053516D01*
X0097940Y0054967D02*
X0094495Y0054967D01*
X0096025Y0057366D02*
X0135007Y0057366D01*
X0135172Y0057200D02*
X0133989Y0056016D01*
X0132963Y0053540D01*
X0132963Y0050860D01*
X0133989Y0048384D01*
X0135172Y0047200D01*
X0133989Y0046016D01*
X0132963Y0043540D01*
X0132963Y0040860D01*
X0133989Y0038384D01*
X0135884Y0036489D01*
X0138360Y0035463D01*
X0141040Y0035463D01*
X0143516Y0036489D01*
X0145411Y0038384D01*
X0146437Y0040860D01*
X0146437Y0043540D01*
X0145411Y0046016D01*
X0144228Y0047200D01*
X0145411Y0048384D01*
X0146437Y0050860D01*
X0146437Y0053540D01*
X0145411Y0056016D01*
X0144228Y0057200D01*
X0145411Y0058384D01*
X0146437Y0060860D01*
X0146437Y0063540D01*
X0145411Y0066016D01*
X0143516Y0067911D01*
X0141040Y0068937D01*
X0138360Y0068937D01*
X0135884Y0067911D01*
X0133989Y0066016D01*
X0132963Y0063540D01*
X0132963Y0060860D01*
X0133989Y0058384D01*
X0135172Y0057200D01*
X0133554Y0054967D02*
X0126460Y0054967D01*
X0126016Y0055411D02*
X0123540Y0056437D01*
X0120860Y0056437D01*
X0118384Y0055411D01*
X0116489Y0053516D01*
X0115463Y0051040D01*
X0115463Y0048360D01*
X0116489Y0045884D01*
X0118384Y0043989D01*
X0120860Y0042963D01*
X0123540Y0042963D01*
X0126016Y0043989D01*
X0127911Y0045884D01*
X0128937Y0048360D01*
X0128937Y0051040D01*
X0127911Y0053516D01*
X0126016Y0055411D01*
X0128304Y0052569D02*
X0132963Y0052569D01*
X0133249Y0050170D02*
X0128937Y0050170D01*
X0128693Y0047772D02*
X0134601Y0047772D01*
X0133722Y0045373D02*
X0127401Y0045373D01*
X0127200Y0043337D02*
X0126717Y0043337D01*
X0125763Y0043186D01*
X0124844Y0042887D01*
X0123984Y0042449D01*
X0123202Y0041881D01*
X0122519Y0041198D01*
X0121951Y0040416D01*
X0121513Y0039556D01*
X0121214Y0038637D01*
X0121063Y0037683D01*
X0121063Y0037200D01*
X0127200Y0037200D01*
X0133337Y0037200D01*
X0133337Y0037683D01*
X0133186Y0038637D01*
X0132887Y0039556D01*
X0132449Y0040416D01*
X0131881Y0041198D01*
X0131198Y0041881D01*
X0130416Y0042449D01*
X0129556Y0042887D01*
X0128637Y0043186D01*
X0127683Y0043337D01*
X0127200Y0043337D01*
X0127200Y0037200D01*
X0127200Y0037200D01*
X0127200Y0037200D01*
X0133337Y0037200D01*
X0133337Y0036717D01*
X0133186Y0035763D01*
X0132887Y0034844D01*
X0132449Y0033984D01*
X0131881Y0033202D01*
X0131198Y0032519D01*
X0130416Y0031951D01*
X0129556Y0031513D01*
X0128637Y0031214D01*
X0127683Y0031063D01*
X0127200Y0031063D01*
X0127200Y0037200D01*
X0127200Y0037200D01*
X0127200Y0037200D01*
X0127200Y0043337D01*
X0127200Y0042975D02*
X0127200Y0042975D01*
X0125113Y0042975D02*
X0123568Y0042975D01*
X0122067Y0040576D02*
X0103094Y0040576D01*
X0103568Y0042975D02*
X0120832Y0042975D01*
X0116999Y0045373D02*
X0107401Y0045373D01*
X0108693Y0047772D02*
X0115707Y0047772D01*
X0115463Y0050170D02*
X0108937Y0050170D01*
X0108304Y0052569D02*
X0116096Y0052569D01*
X0117940Y0054967D02*
X0106460Y0054967D01*
X0096437Y0059764D02*
X0133417Y0059764D01*
X0132963Y0062163D02*
X0095972Y0062163D01*
X0094366Y0064561D02*
X0133386Y0064561D01*
X0134932Y0066960D02*
X0108987Y0066960D01*
X0110815Y0069358D02*
X0161085Y0069358D01*
X0160463Y0071757D02*
X0141284Y0071757D01*
X0143231Y0074155D02*
X0160718Y0074155D01*
X0162026Y0076554D02*
X0143937Y0076554D01*
X0143766Y0078952D02*
X0175700Y0078952D01*
X0175700Y0081351D02*
X0142577Y0081351D01*
X0138993Y0083749D02*
X0174994Y0083749D01*
X0172595Y0086148D02*
X0170194Y0086148D01*
X0164206Y0086148D02*
X0099705Y0086148D01*
X0100731Y0088546D02*
X0161421Y0088546D01*
X0172374Y0076554D02*
X0174526Y0076554D01*
X0167200Y0072200D02*
X0167200Y0064700D01*
X0162200Y0059700D01*
X0154700Y0059700D01*
X0154700Y0047200D01*
X0149398Y0042975D02*
X0146437Y0042975D01*
X0146319Y0040576D02*
X0148806Y0040576D01*
X0147963Y0038178D02*
X0145205Y0038178D01*
X0147996Y0035779D02*
X0141803Y0035779D01*
X0137597Y0035779D02*
X0133188Y0035779D01*
X0132011Y0033381D02*
X0148992Y0033381D01*
X0148975Y0030982D02*
X0109638Y0030982D01*
X0108540Y0031437D02*
X0111016Y0030411D01*
X0112624Y0028803D01*
X0113202Y0029381D01*
X0113984Y0029949D01*
X0114844Y0030387D01*
X0115763Y0030686D01*
X0116717Y0030837D01*
X0117200Y0030837D01*
X0117200Y0024700D01*
X0117200Y0024700D01*
X0123337Y0024700D01*
X0123337Y0025183D01*
X0123186Y0026137D01*
X0122887Y0027056D01*
X0122449Y0027916D01*
X0121881Y0028698D01*
X0121198Y0029381D01*
X0120416Y0029949D01*
X0119556Y0030387D01*
X0118637Y0030686D01*
X0117683Y0030837D01*
X0117200Y0030837D01*
X0117200Y0024700D01*
X0117200Y0024700D01*
X0123337Y0024700D01*
X0123337Y0024217D01*
X0123186Y0023263D01*
X0122887Y0022344D01*
X0122449Y0021484D01*
X0121881Y0020702D01*
X0121198Y0020019D01*
X0120416Y0019451D01*
X0119556Y0019013D01*
X0119323Y0018937D01*
X0121694Y0018937D01*
X0122723Y0018511D01*
X0123511Y0017723D01*
X0123937Y0016694D01*
X0123937Y0007706D01*
X0123511Y0006677D01*
X0122723Y0005889D01*
X0121694Y0005463D01*
X0112706Y0005463D01*
X0111677Y0005889D01*
X0110889Y0006677D01*
X0110463Y0007706D01*
X0110463Y0016694D01*
X0110889Y0017723D01*
X0111677Y0018511D01*
X0112706Y0018937D01*
X0115077Y0018937D01*
X0114844Y0019013D01*
X0113984Y0019451D01*
X0113202Y0020019D01*
X0112624Y0020597D01*
X0111016Y0018989D01*
X0108540Y0017963D01*
X0105891Y0017963D01*
X0106016Y0017911D01*
X0107911Y0016016D01*
X0108937Y0013540D01*
X0108937Y0010860D01*
X0107911Y0008384D01*
X0106016Y0006489D01*
X0103540Y0005463D01*
X0100860Y0005463D01*
X0098384Y0006489D01*
X0098353Y0006519D01*
X0097723Y0005889D01*
X0096694Y0005463D01*
X0087706Y0005463D01*
X0086677Y0005889D01*
X0085889Y0006677D01*
X0085463Y0007706D01*
X0085463Y0008509D01*
X0085411Y0008384D01*
X0083516Y0006489D01*
X0081040Y0005463D01*
X0078360Y0005463D01*
X0075884Y0006489D01*
X0073989Y0008384D01*
X0072963Y0010860D01*
X0072963Y0013540D01*
X0073989Y0016016D01*
X0075884Y0017911D01*
X0078360Y0018937D01*
X0081040Y0018937D01*
X0083516Y0017911D01*
X0085411Y0016016D01*
X0085463Y0015891D01*
X0085463Y0016694D01*
X0085889Y0017723D01*
X0086677Y0018511D01*
X0087649Y0018913D01*
X0087344Y0019013D01*
X0086484Y0019451D01*
X0085702Y0020019D01*
X0085019Y0020702D01*
X0084451Y0021484D01*
X0084013Y0022344D01*
X0083714Y0023263D01*
X0083563Y0024217D01*
X0083563Y0024700D01*
X0089700Y0024700D01*
X0095837Y0024700D01*
X0095837Y0025183D01*
X0095686Y0026137D01*
X0095387Y0027056D01*
X0094949Y0027916D01*
X0094381Y0028698D01*
X0093698Y0029381D01*
X0092916Y0029949D01*
X0092056Y0030387D01*
X0091137Y0030686D01*
X0090183Y0030837D01*
X0089700Y0030837D01*
X0089700Y0024700D01*
X0089700Y0024700D01*
X0089700Y0024700D01*
X0095837Y0024700D01*
X0095837Y0024217D01*
X0095686Y0023263D01*
X0095387Y0022344D01*
X0094949Y0021484D01*
X0094381Y0020702D01*
X0093698Y0020019D01*
X0092916Y0019451D01*
X0092056Y0019013D01*
X0091823Y0018937D01*
X0096694Y0018937D01*
X0097723Y0018511D01*
X0098353Y0017881D01*
X0098384Y0017911D01*
X0100860Y0018937D01*
X0103509Y0018937D01*
X0103384Y0018989D01*
X0101489Y0020884D01*
X0100463Y0023360D01*
X0100463Y0026040D01*
X0101489Y0028516D01*
X0103384Y0030411D01*
X0105860Y0031437D01*
X0108540Y0031437D01*
X0104762Y0030982D02*
X0099793Y0030982D01*
X0101556Y0028584D02*
X0094464Y0028584D01*
X0094607Y0030982D02*
X0077010Y0030982D01*
X0078824Y0033381D02*
X0091492Y0033381D01*
X0090496Y0035779D02*
X0079437Y0035779D01*
X0079173Y0038178D02*
X0090463Y0038178D01*
X0091306Y0040576D02*
X0077851Y0040576D01*
X0075132Y0042975D02*
X0093537Y0042975D01*
X0096999Y0045373D02*
X0077530Y0045373D01*
X0080492Y0047772D02*
X0095707Y0047772D01*
X0095463Y0050170D02*
X0083030Y0050170D01*
X0077200Y0050700D02*
X0077200Y0053700D01*
X0077200Y0050700D02*
X0062700Y0036200D01*
X0057549Y0040576D02*
X0041319Y0040576D01*
X0041437Y0042975D02*
X0063818Y0042975D01*
X0066216Y0045373D02*
X0040678Y0045373D01*
X0040205Y0038178D02*
X0056227Y0038178D01*
X0055963Y0035779D02*
X0036803Y0035779D01*
X0032597Y0035779D02*
X0018700Y0035779D01*
X0018700Y0036672D02*
X0018700Y0032728D01*
X0020411Y0031016D01*
X0021437Y0028540D01*
X0021437Y0025860D01*
X0020411Y0023384D01*
X0018516Y0021489D01*
X0016040Y0020463D01*
X0013360Y0020463D01*
X0010884Y0021489D01*
X0008989Y0023384D01*
X0007963Y0025860D01*
X0007963Y0028540D01*
X0008989Y0031016D01*
X0010700Y0032728D01*
X0010700Y0036672D01*
X0008989Y0038384D01*
X0007963Y0040860D01*
X0007963Y0043540D01*
X0008989Y0046016D01*
X0010884Y0047911D01*
X0013360Y0048937D01*
X0016040Y0048937D01*
X0018516Y0047911D01*
X0020411Y0046016D01*
X0021437Y0043540D01*
X0021437Y0040860D01*
X0020411Y0038384D01*
X0018700Y0036672D01*
X0020205Y0038178D02*
X0029195Y0038178D01*
X0028081Y0040576D02*
X0021319Y0040576D01*
X0021437Y0042975D02*
X0027963Y0042975D01*
X0028722Y0045373D02*
X0020678Y0045373D01*
X0018656Y0047772D02*
X0030744Y0047772D01*
X0042017Y0033381D02*
X0018700Y0033381D01*
X0020425Y0030982D02*
X0038975Y0030982D01*
X0036123Y0028584D02*
X0021419Y0028584D01*
X0021437Y0026185D02*
X0033470Y0026185D01*
X0033200Y0023787D02*
X0020578Y0023787D01*
X0018273Y0021388D02*
X0033200Y0021388D01*
X0033200Y0018990D02*
X0005000Y0018990D01*
X0005889Y0017723D02*
X0005463Y0016694D01*
X0005463Y0007706D01*
X0005889Y0006677D01*
X0006677Y0005889D01*
X0007706Y0005463D01*
X0016694Y0005463D01*
X0017723Y0005889D01*
X0017913Y0006079D01*
X0017973Y0006063D01*
X0022200Y0006063D01*
X0026427Y0006063D01*
X0026986Y0006213D01*
X0027488Y0006503D01*
X0027897Y0006912D01*
X0028187Y0007414D01*
X0028337Y0007973D01*
X0028337Y0012200D01*
X0028337Y0016427D01*
X0028187Y0016986D01*
X0027897Y0017488D01*
X0027488Y0017897D01*
X0026986Y0018187D01*
X0026427Y0018337D01*
X0022200Y0018337D01*
X0022200Y0012200D01*
X0028337Y0012200D01*
X0022200Y0012200D01*
X0022200Y0012200D01*
X0022200Y0012200D01*
X0022200Y0006063D01*
X0022200Y0012200D01*
X0022200Y0012200D01*
X0022200Y0018337D01*
X0017973Y0018337D01*
X0017913Y0018321D01*
X0017723Y0018511D01*
X0016694Y0018937D01*
X0007706Y0018937D01*
X0006677Y0018511D01*
X0005889Y0017723D01*
X0005463Y0016591D02*
X0005000Y0016591D01*
X0005000Y0014193D02*
X0005463Y0014193D01*
X0005463Y0011794D02*
X0005000Y0011794D01*
X0005000Y0009396D02*
X0005463Y0009396D01*
X0005757Y0006997D02*
X0005000Y0006997D01*
X0005000Y0021388D02*
X0011127Y0021388D01*
X0008822Y0023787D02*
X0005000Y0023787D01*
X0005000Y0026185D02*
X0007963Y0026185D01*
X0007981Y0028584D02*
X0005000Y0028584D01*
X0005000Y0030982D02*
X0008975Y0030982D01*
X0010700Y0033381D02*
X0005000Y0033381D01*
X0005000Y0035779D02*
X0010700Y0035779D01*
X0009195Y0038178D02*
X0005000Y0038178D01*
X0005000Y0040576D02*
X0008081Y0040576D01*
X0007963Y0042975D02*
X0005000Y0042975D01*
X0005000Y0045373D02*
X0008722Y0045373D01*
X0010744Y0047772D02*
X0005000Y0047772D01*
X0005000Y0054967D02*
X0010773Y0054967D01*
X0010702Y0055019D02*
X0011484Y0054451D01*
X0012344Y0054013D01*
X0013263Y0053714D01*
X0014217Y0053563D01*
X0014700Y0053563D01*
X0014700Y0059700D01*
X0014700Y0059700D01*
X0014700Y0059700D01*
X0008563Y0059700D01*
X0008563Y0060183D01*
X0008714Y0061137D01*
X0009013Y0062056D01*
X0009451Y0062916D01*
X0010019Y0063698D01*
X0010702Y0064381D01*
X0011484Y0064949D01*
X0012344Y0065387D01*
X0013263Y0065686D01*
X0014217Y0065837D01*
X0014700Y0065837D01*
X0014700Y0059700D01*
X0008563Y0059700D01*
X0008563Y0059217D01*
X0008714Y0058263D01*
X0009013Y0057344D01*
X0009451Y0056484D01*
X0010019Y0055702D01*
X0010702Y0055019D01*
X0009006Y0057366D02*
X0005000Y0057366D01*
X0005000Y0059764D02*
X0008563Y0059764D01*
X0009067Y0062163D02*
X0005000Y0062163D01*
X0005000Y0064561D02*
X0010950Y0064561D01*
X0014700Y0064561D02*
X0014700Y0064561D01*
X0014700Y0062163D02*
X0014700Y0062163D01*
X0014700Y0059764D02*
X0014700Y0059764D01*
X0014700Y0057366D02*
X0014700Y0057366D01*
X0014700Y0054967D02*
X0014700Y0054967D01*
X0014700Y0042200D02*
X0014700Y0027200D01*
X0022200Y0016591D02*
X0022200Y0016591D01*
X0022200Y0014193D02*
X0022200Y0014193D01*
X0022200Y0011794D02*
X0022200Y0011794D01*
X0022200Y0009396D02*
X0022200Y0009396D01*
X0022200Y0006997D02*
X0022200Y0006997D01*
X0027946Y0006997D02*
X0030757Y0006997D01*
X0030463Y0009396D02*
X0028337Y0009396D01*
X0028337Y0011794D02*
X0030463Y0011794D01*
X0030463Y0014193D02*
X0028337Y0014193D01*
X0028293Y0016591D02*
X0030463Y0016591D01*
X0037200Y0012200D02*
X0037200Y0024700D01*
X0044700Y0027200D01*
X0057200Y0027200D01*
X0059700Y0024700D01*
X0065344Y0028584D02*
X0084936Y0028584D01*
X0085019Y0028698D02*
X0084451Y0027916D01*
X0084013Y0027056D01*
X0083714Y0026137D01*
X0083563Y0025183D01*
X0083563Y0024700D01*
X0089700Y0024700D01*
X0089700Y0024700D01*
X0089700Y0030837D01*
X0089217Y0030837D01*
X0088263Y0030686D01*
X0087344Y0030387D01*
X0086484Y0029949D01*
X0085702Y0029381D01*
X0085019Y0028698D01*
X0083730Y0026185D02*
X0066377Y0026185D01*
X0066437Y0023787D02*
X0083631Y0023787D01*
X0084520Y0021388D02*
X0065620Y0021388D01*
X0063517Y0018990D02*
X0087415Y0018990D01*
X0085463Y0016591D02*
X0084836Y0016591D01*
X0091985Y0018990D02*
X0103383Y0018990D01*
X0101280Y0021388D02*
X0094880Y0021388D01*
X0095769Y0023787D02*
X0100463Y0023787D01*
X0100523Y0026185D02*
X0095670Y0026185D01*
X0089700Y0026185D02*
X0089700Y0026185D01*
X0089700Y0028584D02*
X0089700Y0028584D01*
X0102908Y0033381D02*
X0122389Y0033381D01*
X0122519Y0033202D02*
X0123202Y0032519D01*
X0123984Y0031951D01*
X0124844Y0031513D01*
X0125763Y0031214D01*
X0126717Y0031063D01*
X0127200Y0031063D01*
X0127200Y0037200D01*
X0121063Y0037200D01*
X0121063Y0036717D01*
X0121214Y0035763D01*
X0121513Y0034844D01*
X0121951Y0033984D01*
X0122519Y0033202D01*
X0121212Y0035779D02*
X0103904Y0035779D01*
X0103937Y0038178D02*
X0121141Y0038178D01*
X0127200Y0038178D02*
X0127200Y0038178D01*
X0127200Y0040576D02*
X0127200Y0040576D01*
X0129287Y0042975D02*
X0132963Y0042975D01*
X0133081Y0040576D02*
X0132333Y0040576D01*
X0133259Y0038178D02*
X0134195Y0038178D01*
X0127200Y0035779D02*
X0127200Y0035779D01*
X0127200Y0033381D02*
X0127200Y0033381D01*
X0121964Y0028584D02*
X0147981Y0028584D01*
X0147963Y0026185D02*
X0123170Y0026185D01*
X0123269Y0023787D02*
X0148822Y0023787D01*
X0151127Y0021388D02*
X0122380Y0021388D01*
X0119485Y0018990D02*
X0188200Y0018990D01*
X0188200Y0021388D02*
X0186673Y0021388D01*
X0184700Y0021388D02*
X0184700Y0021388D01*
X0184700Y0021063D02*
X0184700Y0027200D01*
X0184700Y0027200D01*
X0184700Y0027200D01*
X0178563Y0027200D01*
X0178563Y0026717D01*
X0178714Y0025763D01*
X0179013Y0024844D01*
X0179451Y0023984D01*
X0180019Y0023202D01*
X0180702Y0022519D01*
X0181484Y0021951D01*
X0182344Y0021513D01*
X0183263Y0021214D01*
X0184217Y0021063D01*
X0184700Y0021063D01*
X0182727Y0021388D02*
X0158273Y0021388D01*
X0160578Y0023787D02*
X0179594Y0023787D01*
X0178647Y0026185D02*
X0161437Y0026185D01*
X0161419Y0028584D02*
X0178706Y0028584D01*
X0179862Y0030982D02*
X0160425Y0030982D01*
X0160408Y0033381D02*
X0179889Y0033381D01*
X0178712Y0035779D02*
X0161404Y0035779D01*
X0161437Y0038178D02*
X0178641Y0038178D01*
X0179567Y0040576D02*
X0160594Y0040576D01*
X0160002Y0042975D02*
X0177963Y0042975D01*
X0177963Y0045373D02*
X0161235Y0045373D01*
X0161437Y0047772D02*
X0177963Y0047772D01*
X0177963Y0050170D02*
X0160762Y0050170D01*
X0158859Y0052569D02*
X0178325Y0052569D01*
X0179905Y0054967D02*
X0161338Y0054967D01*
X0165523Y0057366D02*
X0178375Y0057366D01*
X0177963Y0059764D02*
X0167921Y0059764D01*
X0170320Y0062163D02*
X0178428Y0062163D01*
X0180034Y0064561D02*
X0171200Y0064561D01*
X0171487Y0066960D02*
X0175413Y0066960D01*
X0173585Y0069358D02*
X0173315Y0069358D01*
X0162913Y0066960D02*
X0144468Y0066960D01*
X0146014Y0064561D02*
X0148115Y0064561D01*
X0147963Y0062163D02*
X0146437Y0062163D01*
X0145983Y0059764D02*
X0147963Y0059764D01*
X0147963Y0057366D02*
X0144393Y0057366D01*
X0145846Y0054967D02*
X0148062Y0054967D01*
X0146437Y0052569D02*
X0150541Y0052569D01*
X0148638Y0050170D02*
X0146151Y0050170D01*
X0144799Y0047772D02*
X0147963Y0047772D01*
X0148165Y0045373D02*
X0145678Y0045373D01*
X0161285Y0064561D02*
X0161404Y0064561D01*
X0184700Y0059700D02*
X0184700Y0047200D01*
X0184700Y0035779D02*
X0184700Y0035779D01*
X0184700Y0033381D02*
X0184700Y0033381D01*
X0184700Y0030982D02*
X0184700Y0030982D01*
X0184700Y0028584D02*
X0184700Y0028584D01*
X0184700Y0026185D02*
X0184700Y0026185D01*
X0184700Y0023787D02*
X0184700Y0023787D01*
X0188200Y0016591D02*
X0174836Y0016591D01*
X0175411Y0016016D02*
X0173516Y0017911D01*
X0171040Y0018937D01*
X0168360Y0018937D01*
X0165884Y0017911D01*
X0163989Y0016016D01*
X0162963Y0013540D01*
X0162963Y0010860D01*
X0163989Y0008384D01*
X0165884Y0006489D01*
X0168360Y0005463D01*
X0171040Y0005463D01*
X0173516Y0006489D01*
X0175411Y0008384D01*
X0176437Y0010860D01*
X0176437Y0013540D01*
X0175411Y0016016D01*
X0176167Y0014193D02*
X0180463Y0014193D01*
X0180463Y0011794D02*
X0176437Y0011794D01*
X0175830Y0009396D02*
X0180463Y0009396D01*
X0180463Y0006997D02*
X0174025Y0006997D01*
X0165375Y0006997D02*
X0144025Y0006997D01*
X0143516Y0006489D02*
X0145411Y0008384D01*
X0146437Y0010860D01*
X0146437Y0013540D01*
X0145411Y0016016D01*
X0143516Y0017911D01*
X0141040Y0018937D01*
X0138360Y0018937D01*
X0135884Y0017911D01*
X0133989Y0016016D01*
X0132963Y0013540D01*
X0132963Y0010860D01*
X0133989Y0008384D01*
X0135884Y0006489D01*
X0138360Y0005463D01*
X0141040Y0005463D01*
X0143516Y0006489D01*
X0145830Y0009396D02*
X0163570Y0009396D01*
X0162963Y0011794D02*
X0146437Y0011794D01*
X0146167Y0014193D02*
X0163233Y0014193D01*
X0164564Y0016591D02*
X0144836Y0016591D01*
X0135375Y0006997D02*
X0123643Y0006997D01*
X0123937Y0009396D02*
X0133570Y0009396D01*
X0132963Y0011794D02*
X0123937Y0011794D01*
X0123937Y0014193D02*
X0133233Y0014193D01*
X0134564Y0016591D02*
X0123937Y0016591D01*
X0114915Y0018990D02*
X0111017Y0018990D01*
X0110463Y0016591D02*
X0107336Y0016591D01*
X0108667Y0014193D02*
X0110463Y0014193D01*
X0110463Y0011794D02*
X0108937Y0011794D01*
X0108330Y0009396D02*
X0110463Y0009396D01*
X0110757Y0006997D02*
X0106525Y0006997D01*
X0085757Y0006997D02*
X0084025Y0006997D01*
X0075375Y0006997D02*
X0054025Y0006997D01*
X0055830Y0009396D02*
X0073570Y0009396D01*
X0072963Y0011794D02*
X0056437Y0011794D01*
X0056167Y0014193D02*
X0073233Y0014193D01*
X0074564Y0016591D02*
X0054836Y0016591D01*
X0055883Y0018990D02*
X0041200Y0018990D01*
X0043937Y0016591D02*
X0044564Y0016591D01*
X0048273Y0021388D02*
X0053780Y0021388D01*
X0056576Y0033381D02*
X0047383Y0033381D01*
X0060492Y0047772D02*
X0063907Y0047772D01*
X0064236Y0059764D02*
X0060164Y0059764D01*
X0070164Y0059764D02*
X0074236Y0059764D01*
X0085034Y0064561D02*
X0049366Y0064561D01*
X0048886Y0069358D02*
X0098585Y0069358D01*
X0100413Y0066960D02*
X0005000Y0066960D01*
X0005000Y0069358D02*
X0010514Y0069358D01*
X0008627Y0071757D02*
X0005000Y0071757D01*
X0005000Y0074155D02*
X0007963Y0074155D01*
X0008176Y0076554D02*
X0005000Y0076554D01*
X0005000Y0078952D02*
X0009425Y0078952D01*
X0013152Y0081351D02*
X0005000Y0081351D01*
X0005000Y0083749D02*
X0011461Y0083749D01*
X0008879Y0086148D02*
X0005000Y0086148D01*
X0005000Y0088546D02*
X0007963Y0088546D01*
X0007963Y0090945D02*
X0005000Y0090945D01*
X0005000Y0093343D02*
X0008917Y0093343D01*
X0010186Y0095742D02*
X0005000Y0095742D01*
X0005000Y0098140D02*
X0006732Y0098140D01*
X0005596Y0100539D02*
X0005000Y0100539D01*
X0005000Y0102937D02*
X0005463Y0102937D01*
X0005000Y0105336D02*
X0006207Y0105336D01*
X0005000Y0107734D02*
X0008207Y0107734D01*
X0009700Y0114700D02*
X0009700Y0127200D01*
X0014700Y0132200D01*
X0014700Y0144700D01*
X0012082Y0150908D02*
X0005000Y0150908D01*
X0005000Y0148509D02*
X0008986Y0148509D01*
X0007992Y0146111D02*
X0005000Y0146111D01*
X0005000Y0143712D02*
X0007963Y0143712D01*
X0008811Y0141314D02*
X0005000Y0141314D01*
X0005000Y0138915D02*
X0010700Y0138915D01*
X0010700Y0136517D02*
X0005000Y0136517D01*
X0005000Y0134118D02*
X0010700Y0134118D01*
X0044700Y0089700D02*
X0044700Y0074700D01*
X0050773Y0071757D02*
X0053443Y0071757D01*
X0059957Y0071757D02*
X0063443Y0071757D01*
X0069957Y0071757D02*
X0073443Y0071757D01*
X0076700Y0077700D02*
X0076700Y0082700D01*
X0069700Y0089700D01*
X0067718Y0095742D02*
X0093617Y0095742D01*
X0094700Y0095742D02*
X0094700Y0095742D01*
X0094700Y0093343D02*
X0094700Y0093343D01*
X0094700Y0090945D02*
X0094700Y0090945D01*
X0100716Y0090945D02*
X0117196Y0090945D01*
X0119700Y0081351D02*
X0119700Y0081351D01*
X0119700Y0078952D02*
X0119700Y0078952D01*
X0119700Y0077200D02*
X0113563Y0077200D01*
X0113563Y0076717D01*
X0113714Y0075763D01*
X0114013Y0074844D01*
X0114451Y0073984D01*
X0115019Y0073202D01*
X0115702Y0072519D01*
X0116484Y0071951D01*
X0117344Y0071513D01*
X0118263Y0071214D01*
X0119217Y0071063D01*
X0119700Y0071063D01*
X0120183Y0071063D01*
X0121137Y0071214D01*
X0122056Y0071513D01*
X0122916Y0071951D01*
X0123698Y0072519D01*
X0124381Y0073202D01*
X0124949Y0073984D01*
X0125387Y0074844D01*
X0125686Y0075763D01*
X0125837Y0076717D01*
X0125837Y0077200D01*
X0119700Y0077200D01*
X0119700Y0071063D01*
X0119700Y0077200D01*
X0119700Y0077200D01*
X0119700Y0076554D02*
X0119700Y0076554D01*
X0119700Y0074155D02*
X0119700Y0074155D01*
X0119700Y0071757D02*
X0119700Y0071757D01*
X0122535Y0071757D02*
X0133116Y0071757D01*
X0131169Y0074155D02*
X0125036Y0074155D01*
X0125811Y0076554D02*
X0130463Y0076554D01*
X0130634Y0078952D02*
X0125583Y0078952D01*
X0124228Y0081351D02*
X0131823Y0081351D01*
X0116865Y0071757D02*
X0111437Y0071757D01*
X0111182Y0074155D02*
X0114364Y0074155D01*
X0113589Y0076554D02*
X0109874Y0076554D01*
X0104700Y0102200D02*
X0082200Y0102200D01*
X0108693Y0107734D02*
X0126009Y0107734D01*
X0123610Y0110133D02*
X0120521Y0110133D01*
X0113119Y0141314D02*
X0133200Y0141314D01*
X0150666Y0162900D02*
X0188200Y0162900D01*
X0188200Y0165299D02*
X0148629Y0165299D01*
X0154858Y0186885D02*
X0138413Y0186885D01*
X0139698Y0189284D02*
X0193101Y0189284D01*
X0193101Y0186885D02*
X0184542Y0186885D01*
X0186045Y0184487D02*
X0193101Y0184487D01*
X0193101Y0182088D02*
X0186437Y0182088D01*
X0185952Y0179690D02*
X0193101Y0179690D01*
X0193101Y0177291D02*
X0184319Y0177291D01*
X0187200Y0172200D02*
X0192200Y0167200D01*
X0192200Y0014700D01*
X0187200Y0009700D01*
X0117200Y0026185D02*
X0117200Y0026185D01*
X0117200Y0028584D02*
X0117200Y0028584D01*
X0068390Y0030982D02*
X0067010Y0030982D01*
X0045375Y0006997D02*
X0043643Y0006997D01*
X0048700Y0081351D02*
X0050920Y0081351D01*
X0048700Y0083749D02*
X0053700Y0083749D01*
X0107200Y0157200D02*
X0107200Y0159700D01*
X0119700Y0172200D01*
X0187200Y0172200D01*
X0190164Y0174893D02*
X0193101Y0174893D01*
X0193101Y0172494D02*
X0192563Y0172494D01*
X0174858Y0186885D02*
X0173692Y0186885D01*
X0169700Y0186885D02*
X0169700Y0186885D01*
X0169700Y0184487D02*
X0169700Y0184487D01*
X0165708Y0186885D02*
X0164542Y0186885D01*
X0139937Y0191682D02*
X0193101Y0191682D01*
X0193101Y0194081D02*
X0139299Y0194081D01*
X0127987Y0186885D02*
X0076087Y0186885D01*
X0074644Y0189284D02*
X0126702Y0189284D01*
X0172569Y0131720D02*
X0174692Y0131720D01*
M02*
